<?xml version="1.0" encoding="UTF-8" standalone="no"?>
<!-- Created with Inkscape (http://www.inkscape.org/) -->

<svg
   xml:space="preserve"
   inkscape:version="1.3.2 (091e20ef0f, 2023-11-25, custom)"
   width="1024"
   height="1024"
   viewBox="0 0 1024 1024"
   version="1.1"
   id="svg5"
   sodipodi:docname="favicon.svg"
   xmlns:inkscape="http://www.inkscape.org/namespaces/inkscape"
   xmlns:sodipodi="http://sodipodi.sourceforge.net/DTD/sodipodi-0.dtd"
   xmlns="http://www.w3.org/2000/svg"
   xmlns:svg="http://www.w3.org/2000/svg"><sodipodi:namedview
     id="namedview7"
     pagecolor="#ffffff"
     bordercolor="#000000"
     borderopacity="0"
     inkscape:showpageshadow="true"
     inkscape:pageopacity="0"
     inkscape:pagecheckerboard="0"
     inkscape:deskcolor="#3d3d3d"
     inkscape:document-units="px"
     showgrid="false"
     inkscape:zoom="0.5"
     inkscape:cx="529"
     inkscape:cy="610"
     inkscape:window-width="1707"
     inkscape:window-height="985"
     inkscape:window-x="0"
     inkscape:window-y="0"
     inkscape:window-maximized="1"
     inkscape:current-layer="layer5"
     showborder="true"
     borderlayer="true"
     inkscape:lockguides="false"
     showguides="true" /><defs
     id="defs2"><linearGradient
       id="linearGradient11827"
       inkscape:swatch="solid"><stop
         style="stop-color:#c5c5c5;stop-opacity:1;"
         offset="0"
         id="stop11825" /></linearGradient></defs><g
     inkscape:groupmode="layer"
     id="layer44"
     inkscape:label="脚"
     style="display:inline"><path
       style="display:inline;fill:#3b3b3b;fill-opacity:1;stroke:#000000;stroke-width:0.8;stroke-linejoin:round;stroke-miterlimit:2;stroke-opacity:1"
       d="m 638.82833,940.43311 c -2.06694,11.11986 12.2009,20.8125 15.37266,22.51666 17.39082,8.42045 19.37134,6.69229 22.6751,3.88947 3.95196,-3.77238 3.44712,-9.21101 4.11154,-13.9877 0.6821,-6.35096 0.0382,-11.13828 0.27154,-16.64785 z"
       id="path29"
       sodipodi:nodetypes="cccccc" /></g><g
     inkscape:groupmode="layer"
     id="layer46"
     inkscape:label="玩偶"
     style="display:inline"><path
       style="display:inline;fill:#fcfaff;fill-opacity:1;stroke:#000000;stroke-width:0.8;stroke-linejoin:round;stroke-miterlimit:2;stroke-opacity:1"
       d="m 684.15963,742.70793 c 5.15827,-10.88754 13.44589,-19.47234 22.79829,-26.54051 -9.58167,-0.13072 -23.36443,4.36308 -17.53501,-10.3617 1.77098,-11.51875 -0.93088,-28.78824 10.64965,-34.83122 10.96067,2.87498 27.04539,1.40282 33.7427,1.79568 3.55984,1.37309 15.29498,-5.8116 8.36266,-18.12788 -3.74023,-7.42749 -16.05971,-21.05556 -12.85643,-31.61965 4.73145,-12.27235 10.18152,-24.37051 20.36763,-33.16877 11.67899,-12.40944 3.76219,-27.31805 2.11198,-42.09478 0.66159,-14.54328 6.66298,-30.67852 13.21627,-43.63869 8.49322,-5.89931 20.69466,-23.22139 30.36613,-17.04146 3.62211,12.32219 8.15691,24.42451 12.14615,36.66719 11.3547,5.12971 13.17985,8.79177 28.8764,-4.81036 9.03995,-8.48593 25.49764,-21.31385 37.385,-12.62644 10.67325,10.04563 27.2826,24.73484 32.08623,30.14395 10.75761,3.88245 14.00769,24.68944 -0.74195,29.94257 -12.2377,4.1654 -27.47879,-5.53427 -21.40604,-20.56947 1.91037,-3.72421 -18.34376,-24.91557 -16.93928,-7.72049 0.0493,11.62812 -7.4262,28.14049 0.33421,37.04084 12.20858,8.45208 2.03709,21.9094 -2.5815,26.39098 4.83929,12.75488 5.05105,29.32664 3.29891,42.76381 -0.45114,9.33734 -7.00459,21.41264 -14.94274,27.8443 8.63664,-4.19254 21.89284,-7.55905 28.3345,-0.23744 7.41805,8.43138 6.25179,22.02539 -1.76314,26.21557 -18.29625,12.06546 -40.42574,19.38842 -54.3299,37.33611 -13.30635,11.53723 -3.33418,32.79605 -7.45997,48.17773 -0.35843,14.26619 -1.13555,19.05171 -24.82177,24.58053 -13.63429,7.11573 -21.93896,-7.78162 -32.83716,-14.13043 -25.28723,-17.12664 -50.57478,-34.2534 -75.86182,-51.37997 z"
       id="path31"
       sodipodi:nodetypes="ccccccccccccccccccccccscccccc" /><path
       style="display:inline;fill:#bfbce5;fill-opacity:1;stroke:none;stroke-width:0.8;stroke-linejoin:round;stroke-miterlimit:2;stroke-opacity:1"
       d="m 694.40813,728.0643 c 4.65681,-5.44127 8.38531,-8.10895 12.65459,-11.72437 3.01742,0.68784 23.18909,-6.47192 24.65569,-8.85666 -3.15788,20.66381 -14.60076,37.44099 -22.91228,47.26408 -2.39284,0.016 -6.12428,-3.51726 -8.34429,-4.14608 -5.27079,-2.26446 -10.54157,-4.52889 -15.81237,-6.79334 3.7579,-4.52306 -0.0331,-5.04581 9.75866,-15.74363 z"
       id="path52"
       sodipodi:nodetypes="ccccccc" /><path
       style="display:inline;fill:#fcfaff;fill-opacity:1;stroke:#000000;stroke-width:0.8;stroke-linejoin:round;stroke-miterlimit:2;stroke-opacity:1"
       d="m 734.14843,671.90807 c -12.82418,-1.67897 -18.55848,-0.69774 -11.33579,23.00587 5.28259,9.31829 8.73526,13.8758 20.27312,22.25352 14.3364,8.23396 29.27022,13.17658 45.40848,14.49069 19.45565,0.20578 42.96854,-4.60734 56.04824,-13.75016 -1.60405,-3.76174 -7.13122,-16.01864 -9.87103,-20.37033 -2.73982,-4.35168 -3.37592,-1.90332 -7.17393,-1.30818 l -76.09962,-6.4692 z"
       id="path49"
       sodipodi:nodetypes="ccccccccc" /><path
       style="display:inline;fill:#89cf8a;fill-opacity:1;stroke:#000000;stroke-width:0.8;stroke-linejoin:round;stroke-miterlimit:2;stroke-opacity:1"
       d="m 734.93961,673.3539 c 0,0 9.64456,-2.306 9.55893,-12.49976 3.46536,3.57412 13.70882,13.84128 21.43727,19.02977 5.60387,4.22632 15.85425,7.22411 23.35384,8.44008 6.85761,1.0556 31.02507,1.79077 40.40222,-1.98027 2.11053,4.52043 3.48698,7.41072 4.98275,11.16245 -21.884,24.70173 -51.99966,15.71747 -66.47094,9.57038 -7.9353,-3.37072 -19.9508,-9.40349 -26.312,-18.54761 -2.23783,-3.11284 -5.74295,-11.9568 -6.95207,-15.17504 z"
       id="path48"
       sodipodi:nodetypes="ccccccccc" /><path
       style="display:inline;fill:none;fill-opacity:1;stroke:#000000;stroke-width:0.8;stroke-linejoin:round;stroke-miterlimit:2;stroke-opacity:1"
       d="m 744.28513,660.64646 c 7.92829,7.83531 15.49999,15.63308 26.0177,21.89507 15.41245,7.53934 31.62456,7.24873 50.08171,5.96637 16.45437,-2.57924 20.56699,-7.08855 32.61207,-16.43812"
       id="path43"
       sodipodi:nodetypes="cccc" /><path
       style="display:inline;fill:none;fill-opacity:1;stroke:#000000;stroke-width:0.8;stroke-linejoin:round;stroke-miterlimit:2;stroke-opacity:1"
       d="m 706.45837,716.19623 c 4.58534,-0.25953 13.82033,-2.74321 16.27702,-3.86757 2.64606,-1.211 8.77075,-4.93606 8.77075,-4.93606"
       id="path51"
       sodipodi:nodetypes="csc" /><path
       style="display:inline;fill:none;fill-opacity:1;stroke:#000000;stroke-width:0.8;stroke-linejoin:round;stroke-miterlimit:2;stroke-opacity:1"
       d="m 763.15453,579.8865 c 4.86344,-2.82545 9.51547,-6.12862 14.74513,-8.19908 5.70687,-2.2594 12.37373,-2.85117 18.33535,-4.31143"
       id="path50"
       sodipodi:nodetypes="ccc" /><path
       style="display:inline;fill:#f5b6e2;fill-opacity:1;stroke:#000000;stroke-width:0.8;stroke-linejoin:round;stroke-miterlimit:2;stroke-opacity:1"
       d="m 764.04413,544.21631 c 0.8679,-8.97163 3.55668,-16.13689 5.10313,-21.13405 1.7245,-5.93472 3.74912,-9.86494 8.34914,-14.43768 2.40528,-2.82256 8.27197,-3.08822 10.24707,4.40604 0.45408,4.84752 0.14736,8.70942 -0.26373,14.41499 -1.93481,10.56203 -2.54193,11.9407 -5.28483,18.62389 -2.02592,4.22107 -5.24746,12.74542 -10.97509,14.45364 -6.80501,-3.18043 -7.78907,-10.36206 -7.17569,-16.32683 z"
       id="path34"
       sodipodi:nodetypes="cccccccc"
       inkscape:label="耳朵" /><path
       style="display:inline;fill:#a5385e;fill-opacity:1;stroke:#000000;stroke-width:0.8;stroke-linejoin:round;stroke-miterlimit:2;stroke-opacity:1"
       d="m 836.69552,617.89114 c 2.80413,-2.50956 7.21441,-2.7776 9.67141,1.1492 1.66964,4.5038 1.00294,20.28117 -3.83493,24.0408 -2.52157,1.76079 -6.73685,1.5657 -8.32797,-0.48345 -3.5979,-6.60784 -0.16381,-22.41895 2.49149,-24.70655 z"
       id="path38"
       sodipodi:nodetypes="ccccc"
       inkscape:label="眼睛" /><path
       style="display:inline;fill:#000000;fill-opacity:1;stroke:none;stroke-width:0.8;stroke-linejoin:round;stroke-miterlimit:2;stroke-opacity:1"
       d="m 803.17877,649.4259 c 2.18251,-4.30488 9.40976,-4.81775 11.83484,-0.48666 0.96455,3.61653 -2.59812,4.71027 -6.06625,4.91312 -2.74103,0.0546 -6.79202,-1.1877 -5.76859,-4.42646 z"
       id="path41"
       sodipodi:nodetypes="cccc"
       inkscape:label="鼻子" /><path
       style="display:inline;fill:#000000;fill-opacity:1;stroke:none;stroke-width:0.8;stroke-linejoin:round;stroke-miterlimit:2;stroke-opacity:1"
       d="m 781.17841,664.69338 c 1.59944,0.26757 14.64386,8.85594 24.01908,9.64919 6.73577,0.27601 13.46964,0.36173 20.348,-2.59829 5.10436,-2.0811 6.56409,-3.23742 7.1907,-1.88195 0.5983,1.79793 -3.54261,3.16869 -5.73515,4.3884 -7.44762,3.19187 -15.74419,3.25928 -23.67424,2.44304 -7.44912,-0.45064 -15.89376,-5.52295 -20.58538,-7.32194 -2.08918,-0.89595 -4.0783,-4.9187 -1.56301,-4.67845 z"
       id="path42"
       inkscape:label="嘴巴"
       sodipodi:nodetypes="cccccccc" /><g
       inkscape:groupmode="layer"
       id="layer47"
       inkscape:label="帽子"
       style="display:inline"><path
         style="display:inline;fill:#8acd8b;fill-opacity:1;stroke:none;stroke-width:0.8;stroke-linejoin:round;stroke-miterlimit:2;stroke-opacity:1"
         d="m 812.41432,552.42434 c 4.40497,-6.597 9.38966,-13.93696 13.66296,-20.62169 -0.68315,-2.22475 -6.0128,-3.02325 0.77392,-5.16306 2.3915,-1.56038 4.27904,-2.70136 9.88262,-7.47694 4.67008,-4.81242 11.622,-10.03543 16.99394,-12.63442 5.70205,-2.86155 13.70637,-4.36163 19.14104,-0.42205 1.40126,0.88757 30.59134,27.94724 32.85424,30.55994 -11.41909,-5.17776 -19.53994,1.87696 -21.86019,7.83318 -1.19834,-4.81769 -9.75389,-13.49696 -14.52898,-13.42443 -2.29776,0.56747 -3.18283,2.34487 -2.92984,7.29027 0.3043,5.63258 -3.20586,17.01623 -3.0097,27.44631 0.48868,3.6892 0.59445,3.83237 0.7176,4.83814 -0.67568,0.18933 -2.72787,-0.61411 -4.57264,-1.03406 -12.12947,-2.03487 -24.18585,-6.31749 -35.58763,-10.7704 -4.00728,-2.11983 -8.13981,-4.02768 -12.14705,-6.14754 z"
         id="path35"
         sodipodi:nodetypes="cccccccccccccccc" /><path
         style="display:inline;fill:none;fill-opacity:1;stroke:#000000;stroke-width:0.8;stroke-linejoin:round;stroke-miterlimit:2;stroke-opacity:1"
         d="m 811.01353,552.47903 c 4.16453,2.13906 7.3496,3.84659 12.47948,6.45071 5.37452,2.41585 8.32851,3.22772 15.86353,5.79926 9.75939,3.30512 17.4485,4.09614 25.23023,6.20862"
         id="path33"
         sodipodi:nodetypes="cccc" /><path
         style="display:inline;fill:none;fill-opacity:1;stroke:#000000;stroke-width:0.8;stroke-linejoin:round;stroke-miterlimit:2;stroke-opacity:1"
         d="m 796.10337,567.0759 c 1.57164,4.28182 3.87924,7.96016 8.11837,12.00414 4.284,3.93944 12.57573,9.90957 20.08679,13.99395 5.61352,2.66765 11.53944,4.42608 17.35491,6.51634 4.78254,1.26413 7.9564,1.66213 13.25062,1.79051 3.90477,0.20898 6.67747,0.49144 10.10802,0.0325"
         id="path32"
         sodipodi:nodetypes="cccccc" /><path
         style="fill:none;fill-opacity:1;stroke:#000000;stroke-width:0.8;stroke-linejoin:round;stroke-miterlimit:2;stroke-opacity:1"
         d="m 883.74184,545.81678 c 0.85886,-3.24031 4.57225,-8.12424 7.83345,-9.38485 4.82493,-1.91167 9.14813,-1.32 14.24712,0.006"
         id="path36"
         sodipodi:nodetypes="ccc" /></g><g
       inkscape:groupmode="layer"
       id="layer48"
       inkscape:label="眼罩"
       style="display:inline"><path
         style="display:inline;fill:#010101;fill-opacity:1;stroke:none;stroke-width:0.8;stroke-linejoin:round;stroke-miterlimit:2;stroke-opacity:1"
         d="m 733.77152,642.84119 c 7.1636,-0.61278 15.52443,-6.80177 22.95851,-8.53104 0.91752,-6.90384 2.76859,-14.80392 9.25478,-18.5856 4.86632,-2.87233 9.19274,-4.40105 15.34061,-3.78827 7.92075,0.71958 9.75123,3.44827 14.51323,7.73618 2.53472,-1.24967 5.7085,-2.52863 7.61741,-3.69183 3.52298,-1.97977 22.45056,-12.02467 33.9105,-17.47808 2.18933,0.57123 5.56053,1.91448 8.34528,2.39797 -15.78938,7.41787 -32.36475,15.56946 -47.97565,23.40976 -0.0997,6.53205 1.1769,12.94568 -3.98715,19.00826 -4.02722,4.28272 -10.15946,7.82649 -16.7921,7.45745 -9.64109,-1.55197 -14.75147,-5.66766 -17.61689,-11.21461 -8.33218,0.92946 -15.57618,6.60088 -22.61688,8.86037 -2.5505,-1.58715 -1.59188,-3.20784 -2.95165,-5.58056 z"
         id="path37"
         sodipodi:nodetypes="cccccccccccccc" /><path
         style="display:inline;fill:#282627;fill-opacity:1;stroke:none;stroke-width:0.8;stroke-linejoin:round;stroke-miterlimit:2;stroke-opacity:1"
         d="m 767.44438,617.72807 c 7.81031,-5.32944 22.07944,-5.05547 27.14904,5.43659 1.40858,3.91988 2.31226,13.22327 -1.74336,18.11456 -4.52037,4.0962 -6.79993,6.78026 -13.78433,6.92764 -8.445,0.27516 -16.42397,-5.09655 -18.4945,-11.90032 -1.90226,-7.92351 0.59322,-13.546 6.87315,-18.57847 z"
         id="path39"
         sodipodi:nodetypes="cccccc" /><path
         style="display:inline;fill:#846b74;fill-opacity:1;stroke:none;stroke-width:0.8;stroke-linejoin:round;stroke-miterlimit:2;stroke-opacity:1"
         d="m 764.83781,625.86423 c 2.13184,2.76243 6.93574,5.02421 3.32468,7.95619 -3.31529,2.97933 -4.69296,3.79906 -3.43072,5.31836 1.50429,2.17296 3.80376,5.04515 6.57965,5.49505 1.54808,-2.1619 3.59109,-7.55848 7.27413,-4.58603 1.23406,1.43635 4.44906,4.30886 4.53021,3.73539 1.35115,-1.66225 2.85032,-3.18659 4.27518,-4.79158 2.26946,-1.74395 1.56635,-4.39861 -1.08249,-5.14463 -5.39911,-2.10526 1.28228,-6.72948 3.72248,-8.84764 -1.93832,-2.0189 -4.77986,-4.19724 -5.82967,-5.0894 -1.75881,1.02487 -4.01838,3.63972 -6.10216,5.3936 -1.74843,0.33016 -5.39875,-2.20067 -7.32574,-3.62675 -2.19514,-1.53787 -4.33344,2.26411 -5.93555,4.18744 z"
         id="path40"
         sodipodi:nodetypes="ccccccccccccc" /></g><g
       inkscape:groupmode="layer"
       id="layer50"
       inkscape:label="领结"
       style="display:inline"><path
         style="display:inline;fill:#5a9c30;fill-opacity:1;stroke:#000000;stroke-width:0.8;stroke-linejoin:round;stroke-miterlimit:2;stroke-opacity:1"
         d="m 783.77329,703.98254 c -11.79089,10.60113 -11.04945,30.01806 -10.38249,32.96307 6.11533,-4.7773 18.19171,-14.82072 19.46883,-15.38807 1.80746,0.72396 17.22978,19.03549 18.81864,18.13832 6.84846,-16.2252 0.5235,-27.79745 -8.15562,-36.98446 -5.73046,-0.57501 -10.51849,-0.95112 -16.24896,-1.52613 -1.1668,0.93242 -2.33363,1.8648 -3.5004,2.79727 z"
         id="path46"
         sodipodi:nodetypes="ccccccc" /><path
         style="display:inline;fill:#692830;fill-opacity:1;stroke:#000000;stroke-width:0.8;stroke-linejoin:round;stroke-miterlimit:2;stroke-opacity:1"
         d="m 784.10845,693.05246 c 1.9018,-2.50903 7.17352,-2.80503 11.73704,1.92283 3.54468,-3.55991 7.90348,-4.65304 10.8622,-2.294 3.09813,3.22299 2.54711,8.25101 -2.38123,10.59373 -2.35438,1.00193 -7.95125,1.40689 -10.08424,-0.25288 -1.34656,0.77636 -6.42733,2.45724 -10.1859,-0.87554 -2.43197,-2.52829 -2.17039,-6.49789 0.0522,-9.09414 z"
         id="path44"
         sodipodi:nodetypes="cccccccc" /><path
         style="fill:none;fill-opacity:1;stroke:#000000;stroke-width:0.8;stroke-linejoin:round;stroke-miterlimit:2;stroke-opacity:1"
         d="m 795.68501,694.92297 c -1.56906,1.51667 0.49843,7.41523 -1.42754,8.08848"
         id="path45"
         sodipodi:nodetypes="cc" /><path
         style="fill:none;fill-opacity:1;stroke:#000000;stroke-width:0.8;stroke-linejoin:round;stroke-miterlimit:2;stroke-opacity:1"
         d="m 792.99528,721.30623 c -1.03879,-6.42705 1.67427,-11.86326 1.34681,-18.52453"
         id="path47"
         sodipodi:nodetypes="cc" /></g></g><g
     inkscape:groupmode="layer"
     id="layer30"
     inkscape:label="衣服"
     style="display:inline"><path
       style="display:inline;fill:#8bcc8b;fill-opacity:1;stroke:#000000;stroke-width:0.8;stroke-linejoin:round;stroke-miterlimit:2;stroke-opacity:1"
       d="m 648.88472,731.08366 c 10.08032,-2.30178 22.48857,-5.86698 32.56889,-8.16876 0,0 6.72589,6.86266 6.32749,13.15882 -0.77675,5.77058 -4.26694,10.34016 -7.27766,15.16856 -10.53957,-6.71954 -21.07915,-13.43909 -31.61872,-20.15862 z"
       id="path30"
       sodipodi:nodetypes="ccccc" /><g
       inkscape:groupmode="layer"
       id="layer36"
       inkscape:label="下"
       style="display:inline"><path
         style="display:inline;fill:#8bcc8b;fill-opacity:1;stroke:#000000;stroke-width:0.8;stroke-linecap:butt;stroke-linejoin:round;stroke-miterlimit:2;stroke-dasharray:none;stroke-opacity:1"
         d="m 366.77673,764.23314 c 25.2614,-19.56548 54.60412,-32.46651 79.86551,-52.032 60.34417,5.26383 120.43869,15.65362 181.18133,14.04376 25.38688,-3.18227 55.11254,17.71445 77.31593,26.90554 32.33739,16.5428 54.0308,32.37654 84.72432,51.74419 22.06973,18.05 40.71773,35.22234 57.91456,60.91727 19.42623,31.65099 30.16645,36.04486 5.80903,43.32064 -24.96426,10.4906 -52.84512,16.53864 -79.74948,19.6476 -51.07348,8.04558 -102.76497,12.13574 -154.41342,14.06355 -34.54862,-0.65627 -69.14213,6.38419 -103.47944,0.54973 -48.34318,-5.13956 -96.68637,-10.27909 -145.02955,-15.41864 -4.12405,-43.1814 -8.24811,-86.36279 -12.37216,-129.54418 4.10489,-9.17766 4.12848,-25.01979 8.23337,-34.19746 z"
         id="path8"
         sodipodi:nodetypes="ccccccccccccc" /><path
         style="display:inline;fill:#ffffff;fill-opacity:1;stroke:#000000;stroke-width:0.8;stroke-linecap:butt;stroke-linejoin:round;stroke-miterlimit:2;stroke-dasharray:none;stroke-opacity:1"
         d="m 573.42427,730.56602 c 6.10178,21.62623 15.16099,42.65498 17.03443,65.136 4.5193,23.88623 4.52189,48.18061 4.75771,72.38744 -31.85072,-2.24729 -63.71889,1.079 -95.56548,1.97989 9.40232,26.64247 18.37372,49.64994 27.77604,76.2924 29.4774,1.12976 62.63047,-2.32363 93.6148,-2.88109 48.98364,-1.79126 97.10173,-4.00028 147.99808,-11.55032 25.61775,-3.16572 41.02232,-8.34409 62.10704,-14.69668 15.65736,-4.13136 32.9921,-9.38882 37.52372,-15.91818 -0.20439,-7.4583 -21.72458,-38.4275 -34.10109,-53.28506 -5.82087,-6.80123 -10.21787,-11.61692 -13.81528,-15.958 -2.17085,-2.76835 -2.17802,-3.79163 -16.97971,5.00773 -15.86887,8.63563 -31.73111,12.50986 -43.20928,17.12709 -17.60133,4.57451 -35.90732,5.83082 -53.91202,8.16904 -14.55394,-0.88885 -22.49934,4.71837 -23.45848,-14.02704 -3.34733,-22.83365 -2.81694,-26.77224 -11.09237,-45.31173 -9.18633,-20.38694 -19.41989,-40.6064 -30.35529,-59.60117 -16.05863,-32.34329 -20.90759,-13.71556 -34.11884,-13.22192 -10.38707,-0.11632 -23.81691,0.46789 -34.20398,0.3516 z"
         id="path9"
         sodipodi:nodetypes="ccccccccccccccccccc" /></g><g
       inkscape:groupmode="layer"
       id="layer35"
       inkscape:label="上"
       style="display:inline"><path
         style="display:inline;fill:#fcfaff;fill-opacity:1;stroke:#000000;stroke-width:0.8;stroke-linecap:butt;stroke-linejoin:round;stroke-miterlimit:2;stroke-dasharray:none;stroke-opacity:1"
         d="m 453.95747,712.2166 c 20.89643,8.34717 45.08339,10.7884 66.99186,15.25531 17.7294,2.81384 33.1176,1.92074 49.62048,3.11903 36.97916,1.51358 74.25692,1.78158 110.8332,-4.76792 10.6859,-3.79056 20.16025,-10.22053 28.47243,-17.70536 3.05334,-6.95428 -5.74507,-24.46364 -12.18019,-35.14061 -10.55215,-14.50226 -8.49152,-2.49898 -16.52296,-10.96216 -6.37244,-9.50755 -19.11071,-4.41554 -27.54279,2.73819 -8.16945,5.32757 -17.37854,9.10427 -27.29513,7.9645 -29.54402,0.93529 -59.14908,1.8927 -88.64658,-0.61415 -13.61822,-0.76798 -27.22965,-1.72254 -40.86718,-2.08485 -12.7004,4.50717 -25.40082,9.01436 -38.10122,13.52152 -1.01058,9.41336 -3.75134,19.26314 -4.76192,28.6765 z"
         id="path7"
         sodipodi:nodetypes="ccccccccccccc" /><path
         style="display:inline;fill:#8bcc89;fill-opacity:1;stroke:#000000;stroke-width:0.8;stroke-linecap:butt;stroke-linejoin:round;stroke-miterlimit:2;stroke-dasharray:none;stroke-opacity:1"
         d="m 479.59557,614.94465 c 25.14505,2.59573 50.2046,6.23913 75.40977,8.11357 25.42565,0.79913 50.8513,1.59824 76.27695,2.39737 l 38.36953,32.24218 c -7.5444,3.72907 -7.77224,7.39459 -26.29731,12.39385 -24.9697,1.46279 -51.59466,3.57727 -76.57587,4.59306 -23.22821,-1.62325 -46.45643,-3.24646 -69.68464,-4.86971 -5.90536,-6.22397 -13.86762,-10.19642 -17.93343,-18.49336 -10.43616,-1.30839 -21.17688,0.45182 -8.98707,-16.83928 4.00371,-7.14824 5.41837,-12.38944 9.42207,-19.53768 z"
         id="path6"
         sodipodi:nodetypes="cccccccccc" /><path
         style="display:inline;fill:#69aa7d;fill-opacity:1;stroke:none;stroke-width:0.8;stroke-linecap:butt;stroke-linejoin:round;stroke-miterlimit:2;stroke-dasharray:none;stroke-opacity:1"
         d="m 471.26392,628.15207 c 7.82411,3.21147 15.61126,6.56328 23.45845,9.68707 9.52884,1.11312 19.04068,2.41168 28.58033,3.40716 8.47354,0.48041 16.95107,1.14073 25.42213,1.50902 1.04254,-0.34414 4.38867,1.02842 4.27624,-0.59821 0.76744,-3.58606 92.49814,-0.25766 93.26558,-3.84373 -4.85208,-8.32758 -2.57761,-5.53566 -15.71094,-14.53904 -12.65894,-5.54476 -95.36845,-2.56689 -111.29576,-3.72675 -12.70742,-1.87256 -25.43726,-3.62358 -38.13064,-5.57214 -1.05147,0.002 -2.72234,-1.31946 -3.00901,0.31654 -2.28547,4.45336 -4.57093,8.90672 -6.85638,13.36008 z"
         id="path5"
         sodipodi:nodetypes="ccccccccccc"
         inkscape:label="阴影" /><g
         inkscape:groupmode="layer"
         id="layer31"
         inkscape:label="领结"
         style="display:inline"><g
           inkscape:groupmode="layer"
           id="layer34"
           inkscape:label="填充"
           style="display:inline"><path
             style="opacity:1;fill:#941327;fill-opacity:1;stroke:none;stroke-width:0.8;stroke-linecap:round;stroke-linejoin:round;stroke-opacity:1"
             d="m 554.49915,632.49721 c 2.09554,-2.67493 4.78411,-5.78867 8.03906,-7.20917 3.66715,-1.56061 8.42643,-2.5373 12.45484,-1.73114 2.75968,0.4406 5.32864,1.59684 8.6612,3.75151 2.27743,2.7143 5.4034,5.91453 5.3561,9.80128 0.3969,3.43233 0.70021,9.08115 -1.25859,12.74051 -2.24271,4.1345 -4.50935,5.4213 -6.80789,7.69243 -2.69352,2.09635 -6.51691,3.05285 -9.77195,3.01957 -3.92008,0.29483 -9.64987,-1.36448 -12.52525,-3.5893 -1.49923,-1.26819 -5.68611,-3.82268 -6.39714,-10.16678 -0.55636,-5.13902 0.61567,-10.97422 2.24962,-14.30891 z"
             id="path90416"
             sodipodi:nodetypes="ccccccccccc" /><path
             style="opacity:1;fill:#94142a;fill-opacity:1;stroke:#000000;stroke-width:0.8;stroke-linecap:round;stroke-linejoin:round;stroke-opacity:1"
             d="m 591.40352,651.56449 c -1.05064,-1.32975 -1.88535,-2.31722 -2.01315,-3.74323 -0.3,-3.34704 -0.75132,-10.49519 1.65622,-14.89524 2.04874,-3.45131 4.42958,-6.65488 8.36214,-7.24172 3.44541,-0.86444 9.99594,-0.84879 14.74456,-0.45197 2.58682,0.79433 4.49077,1.25981 6.72967,4.45523 0.93005,1.99194 1.24248,3.38328 2.28006,6.36667 0.79272,4.89517 2.01335,11.4428 -1.28723,15.83928 -2.88334,3.69923 -8.14264,5.16792 -12.74461,5.77456 -4.77566,0.12688 -8.11533,0.39218 -12.71806,-1.74011 -1.03584,-0.7863 -4.02823,-3.12142 -5.0096,-4.36347 z"
             id="path100149"
             sodipodi:nodetypes="ssccccccccs" /><path
             style="fill:#52a22d;fill-opacity:1;stroke:none;stroke-width:0.8;stroke-linecap:round;stroke-linejoin:round"
             d="m 623.41232,651.63641 c 10.31177,5.2224 25.51358,13.37294 29.23205,18.14334 -4.80719,3.63487 -18.0614,-1.13891 -19.26196,3.39333 3.44396,5.44024 12.0184,10.20022 15.53714,15.65882 6.1421,8.45756 3.13526,8.60704 -5.64829,8.46984 -2.73328,-0.87556 -9.52838,-7.0378 -11.11851,-4.32084 3.31,10.9624 11.54917,20.6848 11.17549,32.56149 -1.12869,4.13015 -10.20472,-1.34173 -13.35322,-4.31854 -5.11211,-5.17415 -8.96366,-11.38906 -12.99491,-17.39723 -0.32238,-2.30757 -2.80429,-9.01592 -3.90283,-3.2626 -1.40671,4.45431 -9.60184,13.73157 -11.36445,4.88 -1.03952,-6.90331 -0.0789,-14.92516 -0.55277,-20.78809 -9.19557,-0.62451 -3.67969,12.21859 -13.16829,3.80761 -4.43961,-3.81102 -5.13008,1.79458 -2.68283,4.64048 3.01882,7.00831 5.8213,14.35247 5.95472,22.08144 -7.94361,-0.8679 -12.76485,-8.28424 -18.76344,-12.2304 -1.09341,12.96956 -6.13761,28.45794 -14.32393,39.57543 -7.51226,4.21037 -8.514,-9.32112 -9.17996,-15.02274 0.0933,-7.53541 0.64829,-15.09161 1.11448,-22.32677 1.22733,-7.85571 -7.32521,-3.82556 -10.99553,-2.32364 -6.89035,4.61115 -0.46315,-8.49706 1.70605,-11.62551 3.32705,-5.13083 7.41681,-9.7483 10.39491,-15.10814 -8.77496,-1.48349 -17.43243,3.38333 -26.16911,1.11632 6.73228,-9.92538 17.9901,-20.42757 29.10805,-24.20127 0.84112,2.28295 10.12079,8.27613 16.47205,7.70104 8.49698,-1.3792 11.75067,-3.12417 15.81523,7.51735 2.33173,5.62208 5.94922,7.58819 8.11195,2.53457 0.25205,-5.44683 2.27293,-12.79993 8.66714,-13.53153 6.88874,1.20993 14.31979,-2.09426 20.19077,-5.62376 z"
             id="path1053"
             sodipodi:nodetypes="ccccccccccccccccccccccccccccc" /></g><g
           inkscape:groupmode="layer"
           id="layer32"
           inkscape:label="线"><g
             inkscape:groupmode="layer"
             id="layer33"
             inkscape:label="边缘"><path
               style="opacity:1;fill:none;fill-opacity:1;stroke:#000000;stroke-width:0.8;stroke-linecap:round;stroke-linejoin:round;stroke-opacity:1"
               d="m 554.49915,632.49721 c 2.09554,-2.67493 4.78411,-5.78867 8.03906,-7.20917 3.66715,-1.56061 8.42643,-2.5373 12.45484,-1.73114 2.75968,0.4406 5.32864,1.59684 8.6612,3.75151 2.27743,2.7143 5.4034,5.91453 5.3561,9.80128 0.3969,3.43233 0.70021,9.08115 -1.25859,12.74051 -2.24271,4.1345 -4.50935,5.4213 -6.80789,7.69243 -2.69352,2.09635 -6.51691,3.05285 -9.77195,3.01957 -3.92008,0.29483 -9.64987,-1.36448 -12.52525,-3.5893 -1.49923,-1.26819 -5.68611,-3.82268 -6.39714,-10.16678 -0.55636,-5.13902 0.61567,-10.97422 2.24962,-14.30891 z"
               id="path71501"
               sodipodi:nodetypes="ccccccccccc" /><path
               style="opacity:1;fill:none;fill-opacity:1;stroke:#000000;stroke-width:0.8;stroke-linecap:round;stroke-linejoin:round;stroke-opacity:1"
               d="m 591.40352,651.56449 c -1.05064,-1.32975 -1.88535,-2.31722 -2.01315,-3.74323 -0.3,-3.34704 -0.75132,-10.49519 1.65622,-14.89524 2.04874,-3.45131 4.42958,-6.65488 8.36214,-7.24172 3.44541,-0.86444 9.99594,-0.84879 14.74456,-0.45197 2.58682,0.79433 4.49077,1.25981 6.72967,4.45523 0.93005,1.99194 1.24248,3.38328 2.28006,6.36667 0.79272,4.89517 2.01335,11.4428 -1.28723,15.83928 -2.88334,3.69923 -8.14264,5.16792 -12.74461,5.77456 -4.77566,0.12688 -8.11533,0.39218 -12.71806,-1.74011 -1.03584,-0.7863 -4.02823,-3.12142 -5.0096,-4.36347 z"
               id="path86409"
               sodipodi:nodetypes="ssccccccccs" /><path
               style="fill:none;stroke:#000000;stroke-width:0.8;stroke-linecap:round;stroke-linejoin:round"
               d="m 623.41232,651.63641 c 10.31177,5.2224 25.51358,13.37294 29.23205,18.14334 -4.80719,3.63487 -18.0614,-1.13891 -19.26196,3.39333 3.44396,5.44024 12.0184,10.20022 15.53714,15.65882 6.1421,8.45756 3.13526,8.60704 -5.64829,8.46984 -2.73328,-0.87556 -9.52838,-7.0378 -11.11851,-4.32084 3.31,10.9624 11.54917,20.6848 11.17549,32.56149 -1.12869,4.13015 -10.20472,-1.34173 -13.35322,-4.31854 -5.11211,-5.17415 -8.96366,-11.38906 -12.99491,-17.39723 -0.32238,-2.30757 -2.80429,-9.01592 -3.90283,-3.2626 -1.40671,4.45431 -9.60184,13.73157 -11.36445,4.88 -1.03952,-6.90331 -0.0789,-14.92516 -0.55277,-20.78809 -9.19557,-0.62451 -3.67969,12.21859 -13.16829,3.80761 -4.43961,-3.81102 -5.13008,1.79458 -2.68283,4.64048 3.01882,7.00831 5.8213,14.35247 5.95472,22.08144 -7.94361,-0.8679 -12.76485,-8.28424 -18.76344,-12.2304 -1.09341,12.96956 -6.13761,28.45794 -14.32393,39.57543 -7.51226,4.21037 -8.514,-9.32112 -9.17996,-15.02274 0.0933,-7.53541 0.64829,-15.09161 1.11448,-22.32677 1.22733,-7.85571 -7.32521,-3.82556 -10.99553,-2.32364 -6.89035,4.61115 -0.46315,-8.49706 1.70605,-11.62551 3.32705,-5.13083 7.41681,-9.7483 10.39491,-15.10814 -8.77496,-1.48349 -17.43243,3.38333 -26.16911,1.11632 6.73228,-9.92538 17.9901,-20.42757 29.10805,-24.20127 0.84112,2.28295 10.12079,8.27613 16.47205,7.70104 8.49698,-1.3792 11.75067,-3.12417 15.81523,7.51735 2.33173,5.62208 5.94922,7.58819 8.11195,2.53457 0.25205,-5.44683 2.27293,-12.79993 8.66714,-13.53153 6.88874,1.20993 14.31979,-2.09426 20.19077,-5.62376 z"
               id="path890"
               sodipodi:nodetypes="ccccccccccccccccccccccccccccc" /></g><g
             inkscape:groupmode="layer"
             id="layer19"
             inkscape:label="其它 1"
             style="fill:none;stroke:#000000;stroke-opacity:1"><path
               style="fill:none;fill-opacity:1;stroke:#000000;stroke-width:1.12;stroke-linecap:round;stroke-linejoin:round;stroke-dasharray:none;stroke-opacity:1"
               d="m 591.46816,674.0667 1.11025,7.96342 1.89085,8.1371"
               id="path5743" /><path
               style="fill:none;fill-opacity:1;stroke:#000000;stroke-width:1.28;stroke-linecap:round;stroke-linejoin:round;stroke-dasharray:none;stroke-opacity:1"
               d="m 600.91293,684.75044 4.93736,-9.89968"
               id="path5745" /><path
               style="fill:none;fill-opacity:1;stroke:#000000;stroke-width:1.44;stroke-linecap:round;stroke-linejoin:round;stroke-dasharray:none;stroke-opacity:1"
               d="M 634.07795,672.24564 620.85384,665.0802"
               id="path5751" /><path
               style="fill:none;fill-opacity:1;stroke:#000000;stroke-width:1.28;stroke-linecap:round;stroke-linejoin:round;stroke-dasharray:none;stroke-opacity:1"
               d="m 632.62638,692.32967 -3.54349,-5.04248"
               id="path5753" /><path
               style="fill:none;fill-opacity:1;stroke:#000000;stroke-width:1.28;stroke-linecap:round;stroke-linejoin:round;stroke-dasharray:none;stroke-opacity:1"
               d="m 575.77841,678.67654 8.33789,9.2435"
               id="path5755" /></g></g></g></g><g
       inkscape:groupmode="layer"
       id="layer37"
       inkscape:label="袖套"
       style="display:inline"><path
         style="display:inline;fill:#86cf85;fill-opacity:1;stroke:#000000;stroke-width:0.8;stroke-linejoin:round;stroke-miterlimit:2;stroke-opacity:1"
         d="m 426.75043,743.65855 c -5.11995,17.1617 -10.69792,34.18648 -15.53216,51.43315 1.97317,26.76943 1.35138,54.99101 1.5485,80.40455 0.23116,10.8968 3.50011,12.68928 9.39718,22.89984 8.28902,11.07097 22.92746,15.03073 26.7771,14.59907 14.09879,2.53629 21.63085,1.84862 30.65725,-1.24722 28.00915,-12.57862 55.10392,-28.88843 81.83848,-43.99224 6.19693,-6.23918 3.86856,-19.16217 3.66893,-27.86148 -2.19706,-9.52053 -5.1593,-17.73591 -10.52035,-25.72116 -3.87027,-4.46708 -9.03323,-9.68659 -12.90352,-14.15368 -4.4313,-7.21537 -6.27274,-12.03913 -9.11235,-20.43763 -9.40948,-17.94273 -18.45583,-36.25518 -30.15805,-52.88789 -6.76696,-9.18212 -1.22475,-14.9351 -16.65333,-21.45593 l -26.76136,-0.18631 c -14.21112,1.89404 -19.04592,5.85573 -27.55904,16.69458 -6.0581,9.60736 -6.10133,16.89344 -4.68728,21.91235 z"
         id="path2"
         sodipodi:nodetypes="cccccccccccccccc" /><path
         style="display:inline;fill:#fdfdfa;fill-opacity:1;stroke:#000000;stroke-width:0.8;stroke-linejoin:round;stroke-miterlimit:2;stroke-opacity:1"
         d="m 507.53931,797.88449 c 10.34822,-3.89875 16.66114,-2.76239 34.49355,5.56617 16.52392,11.12068 24.1884,28.45445 23.87387,42.87773 0.33264,16.16586 -1.3484,27.09213 -14.93348,32.34592 -12.62204,7.86339 -23.66186,16.68186 -38.28364,22.00667 -14.62339,5.27343 -24.98638,8.78024 -39.01144,12.2725 -14.91172,2.66853 -31.79283,0.90378 -44.80995,-7.69574 -10.06606,-5.62082 -13.28094,-13.63612 -16.48312,-25.13712 -0.97963,-14.93474 -5.73144,-38.30864 4.20909,-50.20541 7.07702,-11.13739 19.88794,-14.54963 31.25002,-19.48285 13.80742,-7.46302 29.29473,-9.07256 44.62804,-10.65669 5.02236,-0.6304 10.04471,-1.26078 15.06706,-1.89118 z"
         id="path3"
         sodipodi:nodetypes="cccccccccccc" /><path
         style="display:inline;fill:none;fill-opacity:1;stroke:#000000;stroke-width:0.8;stroke-linejoin:round;stroke-miterlimit:2;stroke-opacity:1"
         d="m 411.43675,869.5682 c 10.01586,-4.77838 22.97302,-11.51891 33.3141,-15.52718 12.54616,-3.67666 23.03294,-8.98144 39.40096,-9.91903 14.89872,-0.29043 20.88304,-1.53395 40.13907,3.29539 21.4427,8.34946 25.85942,10.64861 39.74769,18.1372"
         id="path4"
         sodipodi:nodetypes="ccccc" /></g></g><g
     inkscape:groupmode="layer"
     id="layer39"
     inkscape:label="袋子"
     style="display:inline"><path
       style="display:inline;fill:#ffffff;fill-opacity:1;stroke:#000000;stroke-width:0.8;stroke-linejoin:round;stroke-miterlimit:2;stroke-opacity:1"
       d="m 131.13646,748.91998 c 74.04395,-53.60896 159.8336,-26.67472 161.69269,-25.67733 15.87462,3.89857 33.87794,8.27131 46.15301,18.92155 12.06765,9.36082 21.07405,16.19322 32.11945,30.2695 12.54199,14.8929 25.23117,31.28997 38.78772,45.21972 4.49683,5.1611 6.95067,11.79744 9.1338,17.40828 -3.70784,9.45236 -5.53995,12.44647 -7.44625,22.28488 -0.67063,9.77927 2.66281,27.3524 5.26451,32.05108 5.57045,8.83576 7.32112,9.3411 12.69421,14.37724 7.678,5.51847 16.95177,8.43605 27.19086,7.85864 2.29717,-1.69041 -6.40885,-10.5159 -7.86049,-15.79916 -5.02893,-13.06221 -7.69664,-35.87861 -5.11484,-41.27341 9.83228,-3.58759 7.44892,-2.25138 7.44892,-2.25138 -0.19375,-0.29256 8.29542,6.45402 12.64404,9.61341 1.33487,0.93088 15.30058,-2.67056 16.51967,-2.70224 5.39118,-0.44643 1.02088,4.39382 5.50547,2.96592 2.0392,-0.64928 -0.46952,0.37578 0.63741,-0.48058 0.69205,-0.28299 14.47414,0.37728 18.19301,-0.036 3.04083,-0.3379 4.35539,-2.22948 5.14686,-3.81665 -0.1733,-0.89165 6.92885,-1.02906 11.30546,-0.81338 0.78587,-0.62408 3.966,-6.48137 5.58257,-8.76864 3.34235,1.14027 5.79647,2.39666 8.74527,3.84511 18.60812,7.79672 36.8436,14.11964 47.27867,32.71264 2.75632,9.64945 6.36929,24.40497 0.74801,27.99433 -9.37188,3.11143 -20.13022,1.79504 -25.89916,-4.2299 -3.41367,7.40366 -11.07469,6.89325 -17.79344,9.06438 2.8263,8.80821 8.19388,17.60016 7.88494,26.68543 -0.30734,8.47916 -4.67549,17.64616 -10.19501,23.42084 -6.28747,6.40458 -22.94837,17.01877 -36.98459,20.52837 -9.77352,5.2769 -20.59078,5.0837 -31.37955,5.0399 -85.56426,1.3069 -171.13787,3.0102 -256.71291,1.6972 -20.80863,-0.4081 -41.78848,0.1855 -62.49011,-0.8484 -13.48813,-3.6924 -24.74151,-12.64895 -35.96831,-20.58852 C 104.00259,964.75159 96.284672,960.9063 85.277488,944.94468 83.57864,942.98991 73.77152,926.14119 70.515568,909.78454 55.31992,836.93415 75.252576,798.60007 131.13646,748.91998 Z"
       id="path18"
       sodipodi:nodetypes="cccccccccccccccscscccccccccccccccccc" /><g
       inkscape:groupmode="layer"
       id="layer42"
       inkscape:label="阴影"
       style="display:inline"><path
         style="display:inline;fill:#c4c3c6;fill-opacity:1;stroke:none;stroke-width:0.8;stroke-linejoin:round;stroke-miterlimit:2;stroke-opacity:1"
         d="m 443.97363,854.89825 c -2.22266,5.13542 0.42542,25.14126 2.23747,30.93766 0.706,3.50091 3.29552,12.02387 4.90634,13.90079 3.75307,6.23206 4.82318,7.44126 4.82318,7.44126 0,0 2.59957,3.8456 1.00405,4.7667 3.13168,0.38527 14.35366,1.05421 18.35266,0.62216 8.92046,-2.59489 11.75601,-5.36206 14.80086,-12.90828 2.6311,0.87494 5.28875,3.43393 8.04541,5.6967 3.16075,2.93952 7.38443,5.63923 11.43545,7.19762 3.83276,2.09428 9.29696,3.9108 15.10117,4.39473 6.15626,0.8988 9.51952,2.6233 22.58583,-1.49525 -0.2201,0.42925 -9.39287,-5.41588 -11.44202,-6.88862 -4.42064,-2.97477 -8.66534,-4.99058 -12.02629,-8.99674 -5.79478,-5.51169 -11.1988,-10.72515 -16.48141,-16.72768 -4.0891,-6.19457 -10.27939,-15.89649 -14.36851,-22.09105 -5.87291,1.53073 -8.0788,7.3643 -14.4064,6.07369 -5.27825,0.51807 -11.24789,-0.12768 -15.50464,-2.85875 -4.15517,-1.38832 -8.45369,-9.97515 -11.97315,-11.36933 -0.0856,-0.11344 -3.46814,0.89978 -7.09,2.30439 z"
         id="path19"
         sodipodi:nodetypes="ccccccccccccccccccc" /><path
         style="display:inline;fill:#c4c3c6;fill-opacity:1;stroke:none;stroke-width:0.8;stroke-linejoin:round;stroke-miterlimit:2;stroke-opacity:1"
         d="m 337.67656,985.43013 c -2.50736,1.6949 -11.28189,10.0758 -10.20843,9.447 13.10174,0.074 25.56643,-0.1786 38.0416,-0.3746 31.79572,-0.4997 61.1803,-0.7285 94.89732,-1.4008 23.3814,-0.2869 30.55426,-0.024 40.00407,-5.243 3.0247,-0.3996 18.71393,-6.0166 27.22045,-12.86519 6.15494,-3.8699 8.13697,-6.21145 10.71179,-8.72132 2.02209,-2.49911 3.71928,-4.48527 5.56187,-8.7242 3.38358,-6.7159 5.20862,-17.15128 0.73838,-26.54454 -3.73153,-8.7763 -5.34726,-14.1924 -5.24438,-14.1047 0,0 -14.71106,-0.74391 -21.46765,-1.16186 -8.67755,-2.93253 -21.25245,-10.44053 -27.40749,-17.56632 -7.32664,-2.64123 -7.80395,14.66293 -16.27012,13.90357 -15.7926,-0.68547 -22.71908,1.28952 -34.3561,-2.37344 -0.12192,-0.0184 -8.35242,-3.5141 -11.39166,-6.32904 -2.48696,1.58171 -4.46575,3.32752 -9.11276,7.57278 -8.23403,8.96467 -15.90364,19.08117 -22.54056,29.23154 -6.7754,9.9351 -11.89561,15.94131 -20.45217,20.65137 -13.03373,8.64466 -23.94901,13.52135 -38.72416,24.60275 z"
         id="path24"
         sodipodi:nodetypes="ccscccccccccccccccc" /><path
         style="fill:#c4c3c6;fill-opacity:1;stroke:none;stroke-width:0.8;stroke-linejoin:round;stroke-miterlimit:2;stroke-opacity:1"
         d="m 72.8788,917.38879 c 14.690864,11.59144 30.29653,23.74922 46.0981,33.81039 11.07624,5.83185 20.97062,11.5363 33.38339,17.18491 18.85467,8.39029 33.09012,13.56844 54.61774,20.64784 4.15302,1.892 14.1155,4.3822 14.87373,5.6693 -21.12271,0.2332 -40.17235,0.01 -61.59007,-0.3603 -6.53126,-0.1341 -6.9919,-0.2088 -11.05078,-0.5509 -3.40721,-1.0886 -9.27605,-3.7151 -12.37513,-5.2468 -7.29375,-4.3241 -15.91181,-10.40146 -23.69864,-16.11785 -8.75724,-7.168 -17.339908,-13.51435 -22.709348,-21.38432 -5.925632,-7.05118 -9.648656,-13.61403 -12.722096,-20.9556 -1.170656,-2.49713 -4.027872,-9.05892 -4.826896,-12.69667 z"
         id="path28"
         sodipodi:nodetypes="cccccccccccc" /></g><g
       inkscape:groupmode="layer"
       id="layer43"
       inkscape:label="褶皱"><path
         style="display:inline;fill:none;fill-opacity:1;stroke:#000000;stroke-width:0.8;stroke-linejoin:round;stroke-miterlimit:2;stroke-opacity:1"
         d="m 456.76273,911.57226 c 4.85709,1.09679 8.86087,1.61012 15.31933,1.40077 8.77687,-0.47541 14.37717,-5.50448 18.25384,-13.03145 3.99938,2.23608 7.07674,5.3775 11.20363,8.40889 6.50255,4.21155 9.64069,5.63682 13.66469,7.01203 2.31112,0.6565 9.81843,2.57679 19.70418,2.69365 6.40581,-0.34277 8.89766,-1.28385 12.65067,-2.45795"
         id="path20"
         sodipodi:nodetypes="ccccccc" /><path
         style="display:inline;fill:none;fill-opacity:1;stroke:#000000;stroke-width:0.8;stroke-linejoin:round;stroke-miterlimit:2;stroke-opacity:1"
         d="m 470.47973,869.59209 19.98438,30.54454"
         id="path21"
         sodipodi:nodetypes="cc" /><path
         style="display:inline;fill:none;fill-opacity:1;stroke:#000000;stroke-width:0.8;stroke-linejoin:round;stroke-miterlimit:2;stroke-opacity:1"
         d="m 510.83648,864.95996 c 5.20901,1.2437 15.06891,6.7357 15.06891,6.7357 0,0 11.44987,6.6006 15.01517,9.7443"
         id="path22"
         sodipodi:nodetypes="ccc" /><path
         style="display:inline;fill:none;fill-opacity:1;stroke:#000000;stroke-width:0.8;stroke-linejoin:round;stroke-miterlimit:2;stroke-opacity:1"
         d="m 547.67729,898.65415 c 0,0 3.37226,3.73639 6.10674,5.95731 1.82208,1.47988 4.91378,5.04428 4.91378,5.04428"
         id="path23"
         sodipodi:nodetypes="csc" /><path
         style="display:inline;fill:none;fill-opacity:1;stroke:#000000;stroke-width:0.8;stroke-linejoin:round;stroke-miterlimit:2;stroke-opacity:1"
         d="m 453.10473,911.86614 c 0.2902,4.8392 -1.12764,8.32708 0.18989,14.98454 0.74655,3.47885 1.3876,6.55322 1.92125,9.83226"
         id="path25"
         sodipodi:nodetypes="ccc" /><path
         style="display:inline;fill:none;fill-opacity:1;stroke:#000000;stroke-width:0.8;stroke-linejoin:round;stroke-miterlimit:2;stroke-opacity:1"
         d="m 428.85651,903.1843 c -4.32202,3.09956 -7.79749,6.29662 -11.78696,10.01856 -6.34842,6.89262 -12.10907,15.57542 -18.20542,23.66054 -2.05476,2.89472 -3.66576,5.68008 -6.23184,8.81485"
         id="path26"
         sodipodi:nodetypes="cccc" /><path
         style="display:inline;fill:none;fill-opacity:1;stroke:#000000;stroke-width:0.8;stroke-linejoin:round;stroke-miterlimit:2;stroke-opacity:1"
         d="m 424.42837,899.25833 c -7.426,1.55269 -14.43202,2.45334 -22.31661,4.51785 -4.96519,1.15733 -7.37373,1.93189 -12.7108,4.5386 -7.69653,3.45784 -14.23143,7.94217 -20.42608,13.53008 l -3.38037,3.28812"
         id="path27"
         sodipodi:nodetypes="ccccc" /></g></g><g
     inkscape:groupmode="layer"
     id="layer40"
     inkscape:label="手掌"
     style="display:inline"><path
       style="display:inline;fill:#f3e8d7;fill-opacity:1;stroke:#000000;stroke-width:0.8;stroke-linejoin:round;stroke-miterlimit:2;stroke-opacity:1"
       d="m 466.73814,865.68254 c 4.13759,1.49364 7.00053,1.01609 12.19573,1.58523 4.15474,0.0456 5.27139,-0.0576 11.03021,-2.13151 4.37709,-3.45648 1.95461,-4.33416 6.86984,-2.19648 2.31142,0.67636 6.73691,-0.24246 9.88432,-0.35937 3.70006,-0.47875 6.05064,-5.5937 6.09467,-4.61352 2.00242,1.23929 7.52578,1.19489 10.24051,-0.0816 3.26013,-2.79787 4.17655,-7.00477 4.16138,-8.96413 -0.99003,-1.92579 -12.24,-3.36928 -17.42591,-4.28814 -12.97478,-1.1248 -20.25155,-1.01714 -33.67345,0.32284 -9.15781,1.47605 -17.28664,3.50068 -24.74605,7.08168 1.30107,2.76504 9.42243,11.66098 15.36875,13.645 z"
       id="path10"
       sodipodi:nodetypes="cccccccccccc" /><path
       style="display:inline;fill:none;fill-opacity:1;stroke:#000000;stroke-width:0.8;stroke-linejoin:round;stroke-miterlimit:2;stroke-opacity:1"
       d="m 461.6479,848.32004 c 1.53706,2.36571 2.65271,4.44805 4.60445,7.1025 2.17208,2.92574 4.51302,8.43462 8.18784,11.41934"
       id="path11"
       sodipodi:nodetypes="ccc" /><path
       style="display:inline;fill:none;fill-opacity:1;stroke:#000000;stroke-width:0.8;stroke-linejoin:round;stroke-miterlimit:2;stroke-opacity:1"
       d="m 483.87174,844.34348 c 1.54523,3.46419 2.30018,7.04722 4.77682,10.78794 1.52438,3.18187 3.05885,4.09321 4.89534,6.56651"
       id="path12"
       sodipodi:nodetypes="ccc" /><path
       style="display:inline;fill:none;fill-opacity:1;stroke:#000000;stroke-width:0.8;stroke-linejoin:round;stroke-miterlimit:2;stroke-opacity:1"
       d="m 506.12486,844.27004 c 0.49144,2.65952 1.7608,5.54224 3.40999,8.3817 l 3.29438,5.27286"
       id="path13"
       sodipodi:nodetypes="ccc" /></g><g
     id="layer8"
     inkscape:label="头部"
     style="display:inline;fill:none;stroke:#000000;stroke-opacity:1"
     inkscape:groupmode="layer"><g
       inkscape:groupmode="layer"
       id="layer11"
       inkscape:label="脸皮"
       style="display:inline"><g
         inkscape:groupmode="layer"
         id="layer17"
         inkscape:label="填充"
         style="display:inline"><path
           style="display:inline;fill:#fce9d1;fill-opacity:1;stroke:none;stroke-width:0.8;stroke-linecap:round;stroke-linejoin:round;stroke-opacity:1"
           d="m 674.2712,392.63711 c 10.59552,0.71442 21.14061,2.13368 31.77669,2.12272 6.41521,0.26091 12.82396,-0.24221 19.2351,-0.40214 5.9544,5.71163 11.61274,11.77619 16.92602,18.08486 2.1796,2.95186 3.71942,3.85875 -1.67708,4.12739 -7.69944,0.54309 -14.71577,0.99551 -22.23518,2.82503 -13.62197,2.13281 -26.51203,7.2304 -39.71842,11.00488 -4.60284,1.06565 -9.02161,3.72638 -12.56076,6.08867 -3.76408,1.44426 -4.01461,4.07189 -4.10775,2.9464 1.16733,-1.4397 5.77112,-12.33715 6.63962,-15.4049 2.34849,-7.04752 3.80069,-14.37968 6.66505,-21.26369 0.94837,-3.33267 2.3437,-7.54896 -0.94329,-10.12922 z"
           id="path36351"
           sodipodi:nodetypes="cccccccccccc" /><path
           style="display:inline;opacity:1;fill:#fce9d1;fill-opacity:1;stroke:none;stroke-width:0.8;stroke-linecap:round;stroke-linejoin:round;stroke-opacity:1"
           d="m 503.41744,424.78938 c 5.24502,-10.36761 10.32593,-20.82614 14.962,-31.48075 1.61523,-3.96688 3.20629,-7.94497 5.30806,-11.68629 3.15605,-6.10905 6.20093,-12.55339 11.50191,-17.13064 0.89252,-1.01374 2.04556,-1.68236 3.20833,-2.33809 -0.26624,8.55222 -0.49563,17.1528 0.71207,25.64945 0.49806,3.96847 1.05883,7.92556 2.07424,11.80015 1.45715,6.40613 3.67192,12.61059 5.93876,18.7679 2.31789,5.56738 4.69548,11.10872 7.33885,16.53085 -6.77805,-1.39888 -13.61097,-2.55165 -20.35925,-4.0801 -5.13995,-1.28174 -10.23,-2.79526 -15.48712,-3.53296 -5.1408,-0.72788 -10.23609,-1.83172 -15.42924,-2.12062 0.0771,-0.12624 0.15424,-0.25259 0.23139,-0.3789 z"
           id="path41131" /><path
           style="display:inline;fill:#fce9d0;fill-opacity:1;stroke:none;stroke-width:0.8;stroke-linecap:round;stroke-linejoin:round;stroke-opacity:1"
           d="m 479.06752,613.93287 c 3.89126,-25.20481 -14.08154,-46.74563 -29.81741,-64.32702 -10.61613,-12.1313 -22.45533,-26.27047 -22.01122,-43.278 2.83962,-2.68251 7.96567,0.20101 15.71428,4.16507 8.00632,2.04238 19.13958,4.7335 26.04436,3.0937 17.45815,0.1448 12.76085,-3.52544 1.14239,-9.73618 -28.48696,-15.66283 -47.17186,-48.94757 -44.19115,-81.4632 5.19355,-15.94309 25.07948,-22.8792 34.12068,-32.75272 8.86079,-5.14128 15.07631,-7.5631 15.39712,-7.35816 0,0 0.35836,6.73256 -0.70249,15.10178 -1.17482,9.26835 -1.44898,19.84142 0.0392,29.88556 -1.52901,0.70304 -4.57103,4.20058 -4.09952,5.5054 0.67536,1.869 2.43486,4.22576 6.03027,6.01796 3.44376,5.50757 7.41888,19.2062 9.29413,23.58101 -2.50759,6.22112 -8.39986,23.3952 -5.16653,38.25523 2.93803,19.88128 14.76616,40.98724 34.37779,48.24797 16.35882,4.50146 32.33511,-7.56654 38.24266,-22.35675 7.48875,-14.77096 7.31675,-31.57904 4.00422,-48.05106 -2.12309,-10.55734 -6.24017,-19.29203 -8.06171,-22.9519 -3.87291,-4.20914 3.18338,-1.40933 8.43579,-1.432 16.37683,1.46066 6.80858,-2.80635 11.16136,11.24197 4.38675,16.58446 5.26859,17.12912 13.5184,34.69422 9.17915,12.16811 23.08917,28.12903 35.53799,27.70067 -8.03308,-9.80752 -15.89004,-22.67588 -16.05858,-36.10758 -0.92018,-15.4948 4.06938,-27.3016 8.66851,-30.95645 6.87285,-11.33448 10.32536,-11.48483 10.90603,-9.56966 3.47167,11.45009 8.08312,31.09896 16.477,41.89294 0.81731,1.0325 3.50417,5.36099 3.29059,4.52688 -1.35578,-1.45173 1.4316,-19.2996 3.69832,-23.47259 4.78803,-14.0481 9.27888,-23.9145 16.81376,-34.57035 -1.6412,4.9004 -1.71266,17.57965 16.11824,12.29571 -3.98952,14.21454 -12.21002,31.74379 -6.8929,48.2028 1.45443,20.42125 14.69059,44.69504 37.50802,45.302 16.46272,0.19357 23.07165,-17.66536 27.15369,-30.76304 5.86284,-22.08306 0.48743,-45.68208 -7.87534,-66.36397 -6.6427,-9.5035 -4.89566,-6.49253 4.34013,-10.82729 4.33701,-1.66357 11.13603,-19.73384 19.2744,-11.9168 1.69158,2.0167 4.5444,11.63076 5.39366,16.52419 4.49757,7.24281 -6.73797,19.04165 -3.34931,21.78019 0.85578,6.81278 -0.58494,18.1749 0.17557,28.1925 -0.2977,4.66321 -0.52155,9.31636 -0.97043,14.46724 -4.1861,8.13477 -11.0032,15.26223 -10.90239,17.04383 4.80272,-0.61498 14.64195,-13.43122 19.26272,-17.56608 1.06629,0.0998 7.53331,4.784 7.53331,4.784 0,0 -19.47132,30.55925 -8.24083,60.15149 -6.19595,1.6602 -14.52056,8.79604 -20.75653,15.56552 -1.2384,1.38705 -15.15809,8.96169 -22.44108,13.56651 -24.23576,12.87582 -55.63904,20.66081 -82.90687,22.86102 5.1553,-5.72414 20.70175,-14.11894 25.69002,-23.07645 8.78633,-12.2542 12.14091,-28.729 7.54105,-43.07268 -12.03942,-2.38536 -25.02982,-0.36557 -37.40817,-1.73386 -18.0417,-0.20829 -36.08586,-0.0811 -54.12549,0.23808 -9.68421,16.53811 -18.03227,38.76579 -6.53214,56.51677 2.43665,4.68424 12.14692,10.02505 0.86224,10.49393 -23.14818,1.74964 -62.09492,-3.24952 -91.25768,-8.19235 z"
           id="path42825"
           sodipodi:nodetypes="ccccccccsscccccscscccccccscccccscccccccccccccccscccscccc" /><path
           style="display:inline;opacity:1;fill:#faceb4;fill-opacity:1;stroke:none;stroke-width:0.8;stroke-linecap:round;stroke-linejoin:round;stroke-opacity:1"
           d="m 537.98112,545.29404 c 5.63465,2.7644 9.02627,8.36627 12.50065,13.33032 4.60813,7.7683 2.3,17.10261 1.27589,25.49814 -1.61915,9.25192 -8.7088,16.30826 -15.90677,21.76453 -6.93035,4.94031 -15.94092,4.40642 -23.99772,3.66661 -5.63013,-0.22626 -11.44669,-0.87774 -16.34738,-3.92002 -5.15395,-3.01862 -8.87506,-7.94862 -11.95358,-12.95656 -6.09917,-11.07123 -5.99647,-24.8844 -1.19423,-36.40726 4.87837,-6.50981 11.36968,-11.65382 18.36895,-15.72003 2.80385,2.13259 5.70652,4.1099 8.8602,5.6927 2.92442,1.86179 6.4486,2.29951 9.6794,3.43383 2.91987,-0.0315 5.89793,0.53252 8.72777,-0.41986 3.53311,-0.66637 6.70493,-2.56486 9.98682,-3.9624 z"
           id="path58294" /><path
           style="opacity:1;fill:#faceb4;fill-opacity:1;stroke:none;stroke-width:0.8;stroke-linecap:round;stroke-linejoin:round;stroke-opacity:1"
           d="m 700.41793,544.43434 c -4.86248,4.43693 -8.66995,10.46376 -10.06315,17.31064 -0.53725,7.18498 0.16251,13.38706 2.22096,21.83741 3.4873,7.33706 5.62698,14.52799 11.31415,19.87613 4.14235,2.18621 8.21065,-1.49405 11.76073,-3.52152 17.6984,-5.84912 30.37815,-18.75902 44.13551,-29.68763 -1.5878,-6.94781 -3.48989,-13.74863 -3.19599,-21.26397 -2.96038,-4.75474 -7.34533,-6.36432 -11.22726,-8.63339 -2.8108,-0.81877 -13.69947,-3.79 -19.18072,-4.10906 -4.37667,1.20914 -4.72911,5.98568 -8.95616,7.52349 -5.71167,2.2107 -11.67191,0.63746 -16.80807,0.6679 z"
           id="path59605"
           sodipodi:nodetypes="ccccccccccc" /></g><g
         inkscape:groupmode="layer"
         id="layer16"
         inkscape:label="线"
         style="display:inline;fill:none;stroke:#000000;stroke-opacity:1"><g
           inkscape:groupmode="layer"
           id="layer18"
           inkscape:label="边缘"
           style="fill:none;stroke:#000000;stroke-opacity:1"><path
             style="display:inline;fill:none;fill-opacity:1;stroke:#000000;stroke-width:0.8;stroke-linecap:round;stroke-linejoin:round;stroke-opacity:1"
             d="m 674.2712,392.63711 c 10.59552,0.71442 21.14061,2.13368 31.77669,2.12272 6.41521,0.26091 12.82396,-0.24221 19.2351,-0.40214 5.9544,5.71163 11.61274,11.77619 16.92602,18.08486 2.1796,2.95186 3.71942,3.85875 -1.67708,4.12739 -7.69944,0.54309 -14.71577,0.99551 -22.23518,2.82503 -13.62197,2.13281 -26.51203,7.2304 -39.71842,11.00488 -4.60284,1.06565 -9.02161,3.72638 -12.56076,6.08867 -3.76408,1.44426 -4.01461,4.07189 -4.10775,2.9464 1.16733,-1.4397 5.77112,-12.33715 6.63962,-15.4049 2.34849,-7.04752 3.80069,-14.37968 6.66505,-21.26369 0.94837,-3.33267 2.3437,-7.54896 -0.94329,-10.12922 z"
             id="path12443"
             sodipodi:nodetypes="cccccccccccc" /><path
             style="display:inline;fill:none;fill-opacity:1;stroke:#000000;stroke-width:0.8;stroke-linecap:round;stroke-linejoin:round;stroke-opacity:1"
             d="m 479.06752,613.93287 c 3.89126,-25.20481 -14.08154,-46.74563 -29.81741,-64.32702 -10.61613,-12.1313 -22.45533,-26.27047 -22.01122,-43.278 2.83962,-2.68251 7.96567,0.20101 15.71428,4.16507 8.00632,2.04238 19.13958,4.7335 26.04436,3.0937 17.45815,0.1448 12.76085,-3.52544 1.14239,-9.73618 -28.48696,-15.66283 -47.17186,-48.94757 -44.19115,-81.4632 5.19355,-15.94309 25.07948,-22.8792 34.12068,-32.75272 8.86079,-5.14128 15.07631,-7.5631 15.39712,-7.35816 0,0 0.35836,6.73256 -0.70249,15.10178 -1.17482,9.26835 -1.44898,19.84142 0.0392,29.88556 -1.52901,0.70304 -4.57103,4.20058 -4.09952,5.5054 0.67536,1.869 2.43486,4.22576 6.03027,6.01796 3.44376,5.50757 7.41888,19.2062 9.29413,23.58101 -2.50759,6.22112 -8.39986,23.3952 -5.16653,38.25523 2.93803,19.88128 14.76616,40.98724 34.37779,48.24797 16.35882,4.50146 32.33511,-7.56654 38.24266,-22.35675 7.48875,-14.77096 7.31675,-31.57904 4.00422,-48.05106 -2.12309,-10.55734 -6.24017,-19.29203 -8.06171,-22.9519 -3.87291,-4.20914 3.18338,-1.40933 8.43579,-1.432 16.37683,1.46066 6.80858,-2.80635 11.16136,11.24197 4.38675,16.58446 5.26859,17.12912 13.5184,34.69422 9.17915,12.16811 23.08917,28.12903 35.53799,27.70067 -8.03308,-9.80752 -15.89004,-22.67588 -16.05858,-36.10758 -0.92018,-15.4948 4.06938,-27.3016 8.66851,-30.95645 6.87285,-11.33448 10.32536,-11.48483 10.90603,-9.56966 3.47167,11.45009 8.08312,31.09896 16.477,41.89294 0.81731,1.0325 3.50417,5.36099 3.29059,4.52688 -1.35578,-1.45173 1.4316,-19.2996 3.69832,-23.47259 4.78803,-14.0481 9.27888,-23.9145 16.81376,-34.57035 -1.6412,4.9004 -1.71266,17.57965 16.11824,12.29571 -3.98952,14.21454 -12.21002,31.74379 -6.8929,48.2028 1.45443,20.42125 14.69059,44.69504 37.50802,45.302 16.46272,0.19357 23.07165,-17.66536 27.15369,-30.76304 5.86284,-22.08306 0.48743,-45.68208 -7.87534,-66.36397 -6.6427,-9.5035 -4.89566,-6.49253 4.34013,-10.82729 4.33701,-1.66357 7.75849,-2.75997 8.19326,-2.34103 24.47035,-20.80781 15.83874,25.41359 13.12549,28.72861 0.85578,6.81278 -0.58494,18.1749 0.17557,28.1925 -0.2977,4.66321 -0.52155,9.31636 -0.97043,14.46724 -4.1861,8.13477 -11.0032,15.26223 -10.90239,17.04383 4.80272,-0.61498 14.64195,-13.43122 19.26272,-17.56608 1.06629,0.0998 7.53331,4.784 7.53331,4.784 0,0 -19.47132,30.55925 -8.24083,60.15149 -12.54392,12.15668 -28.24547,19.92252 -42.95483,29.01297 -24.23576,12.87583 -55.54787,20.82333 -82.8157,23.02354 5.1553,-5.72415 20.3678,-14.1624 25.35607,-23.11991 8.78633,-12.2542 12.14091,-28.729 7.54105,-43.07268 -12.03942,-2.38536 -25.02982,-0.36557 -37.40817,-1.73386 -18.0417,-0.20829 -36.08586,-0.0811 -54.12549,0.23808 -9.68421,16.53811 -18.03227,38.76579 -6.53214,56.51677 2.43665,4.68424 12.14692,10.02505 0.86224,10.49393 -23.14818,1.74964 -62.09492,-3.24952 -91.25768,-8.19235 z"
             id="path7598"
             sodipodi:nodetypes="ccccccccsscccccscscccccccscccccscccccccccccccscccscccc" /><path
             style="display:inline;opacity:1;fill:none;fill-opacity:1;stroke:#000000;stroke-width:0.8;stroke-linecap:round;stroke-linejoin:round;stroke-opacity:1"
             d="m 503.41744,424.78938 c 5.24502,-10.36761 10.32593,-20.82614 14.962,-31.48075 1.61523,-3.96688 3.20629,-7.94497 5.30806,-11.68629 3.15605,-6.10905 6.20093,-12.55339 11.50191,-17.13064 0.89252,-1.01374 2.04556,-1.68236 3.20833,-2.33809 -0.26624,8.55222 -0.49563,17.1528 0.71207,25.64945 0.49806,3.96847 1.05883,7.92556 2.07424,11.80015 1.45715,6.40613 3.67192,12.61059 5.93876,18.7679 2.31789,5.56738 4.69548,11.10872 7.33885,16.53085 -6.77805,-1.39888 -13.61097,-2.55165 -20.35925,-4.0801 -5.13995,-1.28174 -10.23,-2.79526 -15.48712,-3.53296 -5.1408,-0.72788 -10.23609,-1.83172 -15.42924,-2.12062 0.0771,-0.12624 0.15424,-0.25259 0.23139,-0.3789 z"
             id="path41158"
             inkscape:label="path41158" /></g></g></g><g
       inkscape:groupmode="layer"
       id="layer9"
       inkscape:label="头发"
       style="display:inline;fill:none;fill-opacity:1;stroke:#000000;stroke-opacity:1"><g
         inkscape:groupmode="layer"
         id="layer15"
         inkscape:label="填充"
         style="display:inline;fill:none;fill-opacity:1;stroke:#000000;stroke-opacity:1"><path
           style="display:inline;opacity:1;fill:#83b8e2;fill-opacity:1;stroke:#000000;stroke-width:0.8;stroke-linecap:butt;stroke-linejoin:round;stroke-dasharray:none;stroke-dashoffset:0;stroke-opacity:1"
           d="m 272.52592,535.76577 c 1.95821,11.61739 2.49184,23.64877 5.65272,34.80285 -8.3153,13.16174 -9.71267,29.31403 -2.88395,43.37652 5.08116,17.97588 17.14892,34.49186 13.40912,55.01802 -2.0322,11.15394 -21.82332,11.98085 -15.41399,16.45293 17.8617,3.40702 34.2085,-11.11575 41.9045,-25.86579 6.00614,-11.30207 5.11017,-24.43959 5.84483,-36.81226 6.08864,3.6517 6.5547,17.09507 8.47786,24.94269 3.83067,27.40259 4.57464,59.98117 -16.11676,81.20104 11.39527,5.02077 23.10189,10.64824 31.87834,19.63501 -12.24405,10.57769 -9.68093,30.43993 -3.28328,43.82068 1.91557,9.68495 17.5812,17.8358 8.87835,27.89162 -14.40456,6.23736 8.09586,7.6305 13.27906,3.1724 12.24533,-5.30131 9.74304,-18.88142 5.93792,-29.00883 -2.76509,-9.15602 -9.79864,-19.49232 -0.88693,-27.57626 12.88566,-20.28387 40.0263,-10.68958 58.75187,-20.43494 15.71525,-4.86247 28.51464,-19.8185 28.96229,-36.53291 2.22635,-6.96477 17.43683,3.0598 18.33765,10.96708 5.66763,11.07949 4.74608,25.13028 1.87085,37.05895 -16.7432,20.82232 -44.97316,25.87763 -64.69522,43.20416 -10.09499,5.83467 -13.1255,18.27737 -19.66125,27.32297 -9.21771,21.20178 -3.50621,48.19895 14.35858,63.08069 7.18893,-3.72917 0.59825,-17.40341 3.39432,-24.81558 2.85878,-20.09811 12.23101,-46.32824 35.87641,-47.92323 28.80676,-1.96735 60.26295,-10.67858 77.15368,-36.08768 12.42636,-18.07432 9.28736,-41.16463 2.41429,-60.81455 -7.3051,-23.35256 -21.89193,-44.25341 -37.91301,-62.47155 -5.93115,-7.59037 -17.49472,-10.29733 -23.05382,-16.61942 9.05486,-15.05485 20.99802,-33.09085 11.72251,-50.83023 -7.25758,-26.69568 -32.10457,-42.55701 -44.97739,-65.88701 -2.14605,-5.28188 -9.06531,-24.33628 -0.38328,-20.861 14.6003,8.10968 32.99389,10.9187 49.01326,6.87323 0.7701,-4.4389 -15.27088,-8.95191 -20.11606,-14.86674 -19.39624,-13.6143 -29.2328,-35.22592 -33.99251,-57.85977 -1.44375,-11.86922 2.33651,-26.2722 11.81643,-32.45652 12.37478,-8.10019 23.17168,-20.73236 37.37048,-24.5947 -0.0234,24.44408 -4.77587,37.42203 3.31219,60.77483 3.04069,7.35514 10.28168,29.99611 11.47205,21.57405 0.74421,-5.26542 -0.18558,-8.56496 4.40043,-20.6692 4.58602,-12.10422 18.80319,-37.43834 26.57922,-57.46062 4.53291,-8.48829 9.06038,-20.03108 17.24966,-24.35503 -1.61661,29.52103 3.54357,46.67541 15.97551,72.67797 7.12704,1.47346 5.64433,1.10528 13.38537,2.42202 -4.60507,29.27878 11.43143,66.2159 34.86946,84.8656 8.15806,3.55939 23.15717,11.74852 10.13603,-0.76546 -12.26086,-15.01219 -12.44312,-36.3513 -7.09494,-53.94298 4.43601,-3.93995 13.88656,-25.5464 16.35982,-14.03262 3.91611,15.44278 9.51387,31.11134 19.01565,43.98682 -1.15984,-30.68807 23.15137,-53.28903 29.92686,-81.92621 0.80603,-6.78738 10.46976,-20.84119 1.49746,-23.23848 C 593.62169,383.17052 512.18408,352.80222 461.6104,288.79502 432.54027,256.06233 408.48704,214.4195 420.8172,175.89758 c -15.9317,4.39208 -29.30683,16.24481 -43.63485,24.53254 -71.28779,48.09208 -109.13744,103.94498 -107.24939,193.93227 0.34038,47.13571 1.40153,94.32386 2.59296,141.40338"
           id="path1606"
           sodipodi:nodetypes="cccscccccccccccccccccccccccccccccccccszcccccccccccccccc"
           inkscape:label="path1606" /><path
           style="display:inline;opacity:1;fill:#5580aa;fill-opacity:1;stroke:none;stroke-width:0.8;stroke-linecap:round;stroke-linejoin:round;stroke-dasharray:none;stroke-dashoffset:0;stroke-opacity:1"
           d="m 327.43275,634.92921 c 4.32261,27.59203 8.83619,60.1099 -5.86646,83.18273 -0.20941,2.18495 -3.16488,4.70188 -4.70324,7.14116 -2.02456,3.21019 -6.93385,2.69062 1.52764,5.65744 9.07595,3.33468 22.17744,11.95409 26.77416,16.98876 5.51523,-8.2959 14.23368,-16.50915 23.0584,-20.92011 10.36907,-4.84963 21.13148,-9.83197 32.60192,-11.28291 13.334,0.23131 7.18782,-3.08437 1.41907,-8.1939 C 385.78221,695.05537 371.0231,680.38039 353.51747,669.32674 342.6176,660.4711 335.22886,648.0687 328.69381,635.86666 Z"
           id="path31718"
           sodipodi:nodetypes="ccscccccccc" /><path
           style="display:inline;opacity:1;fill:#80b8e3;fill-opacity:1;stroke:#000000;stroke-width:0.8;stroke-linecap:round;stroke-linejoin:round;stroke-dasharray:none;stroke-dashoffset:0;stroke-opacity:1"
           d="m 725.51368,394.44166 c 10.55867,11.12886 15.40917,44.04912 19.3019,59.64049 12.17463,48.21283 -6.73635,71.44432 -1.50286,68.83011 5.59469,-2.11641 8.92489,-7.74187 13.13189,-12.48942 2.74056,-2.97198 4.78827,-5.46426 4.84848,-5.06768 0.0374,-0.43627 2.64083,1.82501 6.78424,4.52909 6.266,-7.06067 15.7272,-21.32581 23.10862,-21.20221 7.79075,11.48773 10.41856,25.93888 9.06934,39.59629 -1.4614,12.96075 -5.73748,27.15501 -16.32593,35.4479 -5.0408,3.2584 -16.05287,7.95698 -1.31008,4.81056 6.19811,-0.97457 11.44611,-0.45331 14.46909,-1.49395 1.76404,-0.92949 1.95121,-3.72589 3.58641,-9.35221 3.21615,-5.0879 7.37259,-1.78789 11.02435,-5.10673 2.94525,-2.67674 9.87168,-10.26624 13.45015,-17.99037 11.39595,-24.59826 -19.59059,-155.69965 -24.90283,-166.88387 -0.23024,-0.39087 -0.77984,0.17606 -6.62429,5.91668 -20.46243,13.772 -43.80818,18.64981 -68.10848,20.81532 z"
           id="path36956"
           sodipodi:nodetypes="ccccccccccccssccc" /><path
           style="display:inline;fill:#5789a6;fill-opacity:1;stroke:#000000;stroke-width:0.8;stroke-linecap:round;stroke-linejoin:round;stroke-dasharray:none;stroke-opacity:1"
           d="m 740.02264,586.34356 c -1.06557,8.14371 -2.344,17.14427 -2.98483,25.33264 -6.97962,20.26102 0.16124,29.76005 1.93516,37.4965 10.26802,14.96001 3.62068,17.9191 0.9358,21.68635 -6.52821,4.34027 -10.038,0.86952 -13.74743,2.90928 -2.46061,2.76617 -5.10526,5.62395 -9.12473,2.96278 -6.97725,-1.90179 -14.34716,-0.57059 -20.80402,2.41587 -5.47107,1.28978 -7.51995,-5.62179 -11.59445,-8.01798 -4.49435,-3.7619 -8.98502,-7.69227 -13.84921,-10.9009 -4.12341,-3.18846 -9.15192,-0.0472 -11.45023,-5.64876 -9.07357,-10.58328 -18.03985,-21.41444 -29.02398,-30.10298 5.3263,-2.93478 12.07761,-1.65013 17.95401,-3.08534 15.30948,-3.37631 30.45356,-5.29231 45.04335,-11.17784 14.80469,-6.05733 40.89693,-20.4589 46.71056,-23.86962 z"
           id="path3787"
           sodipodi:nodetypes="cccccccccccccc" /><path
           style="display:inline;fill:#93aebf;fill-opacity:1;stroke:#000000;stroke-width:0.8;stroke-linecap:round;stroke-linejoin:round;stroke-dasharray:none;stroke-opacity:1"
           d="m 760.47077,570.83342 c 0.77931,3.30928 2.35459,6.07268 2.77331,9.01108 -5.02291,3.7472 -9.24384,8.1816 -13.77967,12.42186 -7.80134,8.16864 -13.60587,24.39493 -12.42849,18.32406 0.84435,-7.65632 1.76585,-16.52441 2.45849,-24.00776 4.45298,-3.11694 19.84957,-17.02281 20.97636,-15.74924 z"
           id="path9105"
           sodipodi:nodetypes="cccccc" /><path
           style="fill:#5789a6;fill-opacity:1;stroke:none;stroke-width:0.8;stroke-linejoin:round;stroke-miterlimit:2;stroke-opacity:1"
           d="m 683.90933,725.2743 c 5.4883,-2.22023 11.25891,-5.35063 15.46692,-8.34751 2.04452,-0.0616 3.446,-0.29233 6.44512,-0.38349 -4.42769,3.5516 -8.7754,7.47053 -12.56985,11.7464 -1.22837,1.48749 -2.35829,2.80183 -5.08419,6.5881 -0.25445,-4.14176 -3.48245,-8.61043 -4.258,-9.6035 z"
           id="path53"
           sodipodi:nodetypes="cccccc" /></g><g
         inkscape:groupmode="layer"
         id="layer12"
         inkscape:label="线"
         style="fill:none;fill-opacity:1;stroke:#000000;stroke-opacity:1"><g
           inkscape:groupmode="layer"
           id="layer14"
           inkscape:label="其它"
           style="fill:none;fill-opacity:1;stroke:#000000;stroke-opacity:1"><path
             style="opacity:1;fill:none;fill-opacity:1;stroke:#000000;stroke-width:0.8;stroke-linecap:butt;stroke-linejoin:round;stroke-dasharray:none;stroke-dashoffset:0;stroke-opacity:1"
             d="m 396.97035,474.47337 c 8.81859,9.12845 20.71384,21.88661 26.83246,25.76205 6.11863,3.87544 5.59676,4.03289 8.24836,5.30068"
             id="path30614"
             sodipodi:nodetypes="czc" /><path
             style="display:inline;opacity:1;fill:none;fill-opacity:1;stroke:#000000;stroke-width:0.8;stroke-linecap:round;stroke-linejoin:round;stroke-dasharray:none;stroke-dashoffset:0;stroke-opacity:1"
             d="m 366.21261,516.85966 c 2.24078,12.60044 1.57257,26.30825 9.57121,37.13542 10.58493,19.50995 28.76063,33.61782 47.6584,44.53658 9.05189,6.94267 23.21509,14.03995 22.42901,27.26276 -3.00677,10.59591 -2.83966,22.92244 -11.29403,31.09818 -2.71227,5.63112 -15.33653,8.47002 -15.51277,11.99133 15.41254,1.09552 31.68248,-7.14784 41.37227,-19.19011 1.63226,-2.24594 2.84051,-4.73964 4.56944,-6.91938"
             id="path30969" /><path
             style="opacity:1;fill:none;fill-opacity:1;stroke:#000000;stroke-width:0.8;stroke-linecap:round;stroke-linejoin:round;stroke-dasharray:none;stroke-dashoffset:0;stroke-opacity:1"
             d="m 335.53043,530.06991 c -13.73922,46.03298 5.38944,96.96267 39.94365,128.72341 25.56933,24.9423 57.5767,47.66658 94.6347,48.45798 21.57055,-2.16833 41.57677,14.00432 47.33395,34.2781 1.69159,5.52346 2.44831,11.3416 2.12834,17.11322"
             id="path30974" /><path
             style="opacity:1;fill:none;fill-opacity:1;stroke:#000000;stroke-width:0.8;stroke-linecap:round;stroke-linejoin:round;stroke-dasharray:none;stroke-dashoffset:0;stroke-opacity:1"
             d="m 302.54339,525.11961 c -4.73253,8.02123 -10.35354,15.57128 -13.98083,24.19363 -3.22448,6.88882 -5.09607,17.69355 -10.36131,20.81389"
             id="path31704"
             sodipodi:nodetypes="ccc" /><path
             style="opacity:1;fill:none;fill-opacity:1;stroke:#000000;stroke-width:0.8;stroke-linecap:round;stroke-linejoin:round;stroke-dasharray:none;stroke-dashoffset:0;stroke-opacity:1"
             d="m 309.23672,566.4615 c -1.24623,19.56755 10.63795,37.11022 12.04811,56.35801"
             id="path31706"
             sodipodi:nodetypes="cc" /><path
             style="opacity:1;fill:none;fill-opacity:1;stroke:#000000;stroke-width:0.8;stroke-linecap:round;stroke-linejoin:round;stroke-dasharray:none;stroke-dashoffset:0;stroke-opacity:1"
             d="m 324.47845,626.48558 c 11.01571,25.43457 21.3644,39.16048 40.15195,50.1498 14.52229,10.07418 23.8003,20.4552 37.83902,31.10988 12.30807,9.96284 22.29043,27.46668 12.11547,42.59347"
             id="path31710"
             sodipodi:nodetypes="cccc" /><path
             style="opacity:1;fill:none;fill-opacity:1;stroke:#000000;stroke-width:0.8;stroke-linecap:round;stroke-linejoin:round;stroke-dasharray:none;stroke-dashoffset:0;stroke-opacity:1"
             d="m 345.29803,748.529 c 9.68853,-16.36282 27.86442,-25.20568 45.4109,-30.75693 6.2312,-1.84176 12.06932,-1.83947 18.4067,-3.09193"
             id="path31714"
             sodipodi:nodetypes="ccc" /><path
             style="display:inline;opacity:1;fill:none;fill-opacity:1;stroke:#000000;stroke-width:0.8;stroke-linecap:round;stroke-linejoin:round;stroke-dasharray:none;stroke-dashoffset:0;stroke-opacity:1"
             d="m 760.06891,506.43831 c 8.69328,-16.60752 17.94896,-33.66366 18.98563,-52.80616 1.16408,-11.85969 2.72178,-23.94238 1.62629,-35.80518 -2.31542,-11.24965 -4.49469,-22.85495 -11.07138,-32.54178"
             id="path36962" /><path
             style="display:inline;opacity:1;fill:none;fill-opacity:1;stroke:#000000;stroke-width:0.8;stroke-linecap:round;stroke-linejoin:round;stroke-opacity:1"
             d="m 573.48589,408.94286 c -1.77808,6.42584 -3.79367,12.81947 -4.55351,19.47019 -0.47957,2.98537 -0.63059,5.9571 -1.11017,8.94248"
             id="path22265"
             sodipodi:nodetypes="ccc" /></g></g></g><g
       inkscape:groupmode="layer"
       id="layer7"
       inkscape:label="眉毛"
       style="display:inline"><g
         inkscape:groupmode="layer"
         id="layer21"
         inkscape:label="填充"
         style="display:inline"><path
           style="display:inline;opacity:1;fill:#030304;fill-opacity:1;stroke:none;stroke-width:0.8;stroke-linecap:round;stroke-linejoin:round;stroke-opacity:1"
           d="m 471.60614,430.33606 c 3.86,-5.33919 10.80983,-6.67117 16.99223,-5.95836 13.0264,0.56868 25.92244,2.93522 38.73214,5.26413 16.66808,3.48306 33.97106,6.13165 50.10741,9.97293 5.10789,1.50584 7.45853,7.79029 4.63141,12.2872 -2.89271,5.04256 -8.94108,2.64147 -13.54028,2.78491 -16.65891,-1.03544 -33.29912,-2.58259 -49.84361,-4.8148 -12.92663,-3.31433 -26.18967,-5.51014 -38.86232,-9.69792 -3.60365,-1.4867 -11.12351,-5.01385 -8.21698,-9.83809 z"
           id="path20838"
           sodipodi:nodetypes="ccccccccc" /><path
           style="display:inline;opacity:1;fill:#030304;fill-opacity:1;stroke:#000000;stroke-width:0.8;stroke-linecap:round;stroke-linejoin:round;stroke-opacity:1"
           d="m 665.93457,436.39178 c 5.44575,-2.58044 10.06008,-5.96001 16.0685,-7.011 13.49813,-4.51023 27.16995,-8.56191 41.2027,-11.02176 8.33351,-1.57133 16.91604,-1.27215 25.21576,-3.00125 6.24975,-1.15266 10.55767,6.57102 6.77903,11.50141 -2.83207,5.80566 -9.78437,6.29118 -15.2729,8.02521 -8.12136,1.62711 -15.14857,6.49555 -23.39181,7.69389 -14.7534,2.38992 -29.00203,7.03075 -43.5508,10.30294 -4.62606,0.86072 -10.792,-0.83326 -11.56153,-6.21716 -1.12279,-5.61648 1.32209,-8.58722 4.51105,-10.27228 z"
           id="path36708"
           sodipodi:nodetypes="cccccccccc" /></g><g
         inkscape:groupmode="layer"
         id="layer20"
         inkscape:label="线"
         style="display:inline;fill:none;stroke:#000000;stroke-opacity:1"><g
           inkscape:groupmode="layer"
           id="layer10"
           inkscape:label="边缘"
           style="display:inline;fill:none;stroke:#000000;stroke-opacity:1"><path
             style="display:inline;opacity:1;fill:none;fill-opacity:1;stroke:#000000;stroke-width:0.8;stroke-linecap:round;stroke-linejoin:round;stroke-opacity:1"
             d="m 471.60614,430.33606 c 3.86,-5.33919 10.80983,-6.67117 16.99223,-5.95836 13.0264,0.56868 25.92244,2.93522 38.73214,5.26413 16.66808,3.48306 35.1345,5.49867 50.10741,9.97293 5.10789,1.50584 7.45853,7.79029 4.63141,12.2872 -2.89271,5.04256 -8.94108,2.64147 -13.54028,2.78491 -16.65891,-1.03544 -33.29912,-2.58259 -49.84361,-4.8148 -12.92663,-3.31433 -26.18967,-5.51014 -38.86232,-9.69792 -3.60365,-1.4867 -11.12351,-5.01385 -8.21698,-9.83809 z"
             id="path8759"
             sodipodi:nodetypes="ccccccccc" /><path
             style="opacity:1;fill:none;fill-opacity:1;stroke:#000000;stroke-width:0.8;stroke-linecap:round;stroke-linejoin:round;stroke-opacity:1"
             d="m 665.93457,436.39178 c 5.44575,-2.58044 10.06008,-5.96001 16.0685,-7.011 13.49813,-4.51023 27.16995,-8.56191 41.2027,-11.02176 8.33351,-1.57133 16.91604,-1.27215 25.21576,-3.00125 6.24975,-1.15266 10.55767,6.57102 6.77903,11.50141 -2.83207,5.80566 -9.78437,6.29118 -15.2729,8.02521 -8.12136,1.62711 -15.14857,6.49555 -23.39181,7.69389 -14.7534,2.38992 -29.00203,7.03075 -43.5508,10.30294 -4.62606,0.86072 -10.792,-0.83326 -11.56153,-6.21716 -1.12279,-5.61648 1.32209,-8.58722 4.51105,-10.27228 z"
             id="path22268"
             sodipodi:nodetypes="cccccccccc" /></g></g></g><g
       inkscape:groupmode="layer"
       id="layer22"
       inkscape:label="眼睛"
       style="display:inline"><g
         inkscape:groupmode="layer"
         id="layer24"
         inkscape:label="填充"><path
           style="display:inline;opacity:1;fill:#3f4b80;fill-opacity:1;stroke:none;stroke-width:0.8;stroke-linecap:round;stroke-linejoin:round;stroke-opacity:1"
           d="m 481.07928,495.66258 c 5.1239,-0.2778 10.29747,-0.48372 15.1132,-2.47227 4.69632,-1.79497 9.61429,-2.4412 14.61665,-2.43173 10.87536,-0.41907 21.83544,-0.90259 32.66781,0.32541 5.04786,1.27112 10.41722,3.03519 15.68968,3.15627 1.73722,-4.1711 -0.91736,-10.20977 -1.53142,-14.9744 -1.77837,-8.83641 -4.72455,-17.58131 -9.28687,-25.36592 -3.30216,-1.6491 -7.5898,-1.05824 -11.28635,-1.86062 -10.27369,-0.81342 -20.45336,-2.45675 -30.45862,-4.93742 -3.98858,-0.41655 -8.94066,-3.03127 -12.38507,-2.23476 -2.40325,6.37532 -3.46021,13.10362 -4.05687,19.85562 -1.17115,5.92954 -4.30576,-6.65373 -5.04771,0.0339 -3.34946,9.88616 -5.84278,20.34926 -4.97366,30.8568 l 0.93923,0.0491 z"
           id="path36795"
           sodipodi:nodetypes="scccccccccccccs" /><path
           style="display:inline;opacity:1;fill:#bbd9e4;fill-opacity:1;stroke:none;stroke-width:0.8;stroke-linecap:round;stroke-linejoin:round;stroke-opacity:1"
           d="m 480.22745,495.63991 c 6.36696,-0.24982 11.54352,-0.66921 17.64837,-3.0596 7.22826,-2.57744 15.73722,-1.74307 22.80259,-2.16947 7.78866,-0.1032 15.12186,-0.24312 22.85733,0.68826 4.7188,1.1704 10.22725,3.07752 15.71287,2.9094 -0.0208,1.4625 -0.0242,7.26015 -0.2168,10.01172 -0.65813,11.21531 -4.17944,22.22024 -10.63887,31.3974 -6.39965,8.79104 -17.05091,15.23597 -28.17,14.35002 -9.95325,-1.28402 -18.42693,-7.82237 -24.69885,-15.34213 -8.94324,-10.81974 -14.12526,-24.85355 -15.29667,-38.7856 z"
           id="path39419"
           sodipodi:nodetypes="ccccccccccc" /><path
           style="opacity:1;fill:#3f4b80;fill-opacity:1;stroke:none;stroke-width:0.8;stroke-linecap:round;stroke-linejoin:round;stroke-opacity:1"
           d="m 670.66358,493.04236 c 7.17691,-2.13264 13.2616,-5.48866 21.40266,-6.8373 5.97137,-1.00638 11.96089,-1.2323 17.97701,-1.04553 5.71416,-0.0293 11.42833,0.0605 17.14032,0.21379 2.49665,0.1987 3.61177,0.18531 5.8042,0.86352 1.60789,0.39726 3.25063,0.82952 4.78076,0.86296 -0.96612,-7.73742 -1.93061,-15.5153 -4.28367,-22.98026 -1.60413,-5.34265 -3.25544,-10.72105 -5.52875,-15.81065 -1.83894,-2.16546 -3.66043,-5.44675 -4.15781,-7.28355 -9.81957,2.27372 -20.82925,3.98753 -30.54054,6.72195 -5.00547,1.28441 -10.01117,2.5695 -15.03925,3.76317 -3.01533,9.26587 -6.22107,18.52225 -8.10909,28.09817 -0.74867,4.46839 -1.03195,9.05666 -0.50805,13.556 0.24618,0.55535 0.71452,-0.0389 1.06221,-0.12224 z"
           id="path41873"
           sodipodi:nodetypes="sccccccccccccss" /><path
           style="display:inline;fill:#bbd9e4;fill-opacity:1;stroke:none;stroke-width:0.8;stroke-linecap:round;stroke-linejoin:round;stroke-opacity:1"
           d="m 670.08798,493.40194 c 0.15632,-0.43172 2.1465,-0.75552 4.58648,-1.70513 3.19797,-1.14919 7.75909,-2.97962 10.45669,-3.80903 7.22826,-2.57744 17.21738,-2.81491 23.48901,-2.78417 7.78865,-0.1032 14.41203,0.11952 20.1343,0.36822 4.62023,0.32573 4.78395,1.35707 8.95715,1.58069 -0.0208,1.4625 0.30952,11.36285 -0.19939,14.9509 -0.65813,11.21531 -2.93969,20.8896 -9.39912,30.06676 -4.40237,7.37556 -9.89664,13.85594 -20.99229,12.71335 -9.98294,-1.02802 -18.06947,-6.77859 -24.34139,-14.29835 -8.94325,-10.81975 -10.17416,-16.21165 -11.34557,-30.1437 -0.0318,-0.35678 -1.5908,-6.36019 -1.34587,-6.93954 z"
           id="path39419-6"
           sodipodi:nodetypes="cccccccccccc" /></g><g
         inkscape:groupmode="layer"
         id="layer23"
         inkscape:label="线"
         style="display:inline;fill:none;stroke:#000000;stroke-opacity:1"><g
           inkscape:groupmode="layer"
           id="layer25"
           inkscape:label="边缘"><path
             style="display:inline;opacity:1;fill:none;fill-opacity:1;stroke:#000000;stroke-width:0.8;stroke-linecap:round;stroke-linejoin:round;stroke-opacity:1"
             d="m 489.32315,466.70716 c 1.44781,-0.62106 1.54046,-11.69136 2.18302,-12.55533 0.38415,-2.3087 2.01997,-7.19331 2.96952,-9.76229 1.60364,0.25392 3.90247,0.74797 5.27296,1.08408 10.81112,2.61378 21.63708,5.18548 32.74674,6.11914 4.37619,0.4768 12.37238,1.2976 15.8613,1.71008 0.23537,0.83278 1.35344,2.79256 1.9024,3.91704 9.00411,19.00842 12.41003,40.31058 6.69928,60.84032 -4.18356,13.15774 -12.61837,26.39037 -26.56242,30.52683 -10.78426,3.87426 -22.09821,-1.40904 -29.8585,-8.89793 -14.33236,-13.47402 -21.36156,-33.80397 -20.49644,-53.24216 1.03128,-7.75901 3.5267,-18.41408 6.05211,-24.18394 0.64358,0.84237 1.67595,3.8828 3.23003,4.44416 z"
             id="path36793"
             sodipodi:nodetypes="ccccccccccccc" /><path
             style="display:inline;opacity:1;fill:none;fill-opacity:1;stroke:#000000;stroke-width:0.8;stroke-linecap:round;stroke-linejoin:round;stroke-opacity:1"
             d="m 677.95704,452.13431 c -3.81594,12.90835 -9.45587,25.8825 -8.45779,39.61978 0.43057,4.80907 1.86433,9.42747 2.36961,14.23027 2.64837,14.5077 10.34927,29.18888 23.90887,36.13867 8.05787,3.96847 18.80564,4.81299 25.91555,-1.5632 8.02965,-7.05377 11.53389,-17.65477 14.45417,-27.60918 4.82679,-19.95269 0.65442,-40.9052 -6.34996,-59.82447 -1.77983,-6.01859 -5.56608,-9.61265 -6.06634,-12.18896 -7.07397,1.79287 -15.32834,2.911 -22.414,4.75823 -7.74749,1.81099 -15.43062,3.88141 -23.14163,5.83873 z"
             id="path41869"
             sodipodi:nodetypes="ccccccccccc" /></g></g></g><g
       inkscape:groupmode="layer"
       id="layer26"
       inkscape:label="嘴"><g
         inkscape:groupmode="layer"
         id="layer29"
         inkscape:label="填充"
         style="display:inline;fill:none;stroke:#000000;stroke-opacity:1"><path
           style="display:inline;opacity:1;fill:#ee7275;fill-opacity:1;stroke:none;stroke-width:0.8;stroke-linecap:round;stroke-linejoin:round;stroke-opacity:1"
           d="m 575.87222,619.76532 c 5.41869,3.74629 9.90058,4.14544 18.36767,5.33637 10.86419,-0.70239 21.99222,0.68942 33.74612,-0.7976 5.21274,-1.05983 8.29466,-2.07461 13.28722,-4.97259 8.5568,-7.33004 17.30659,-14.81229 22.13624,-25.1925 6.05955,-11.38355 8.20384,-25.2671 3.98451,-37.63656 -13.86265,-2.0944 -27.92907,-0.4219 -41.8556,-1.59683 -16.42027,-0.26797 -32.84305,-0.0464 -49.26227,0.18731 -8.25226,13.14603 -14.30733,28.92104 -11.66085,44.64502 1.43368,7.76348 6.13999,14.24909 11.25696,20.02738 z"
           id="path67131"
           sodipodi:nodetypes="cccccccccc" /><path
           style="display:inline;opacity:1;fill:#f6f0ee;fill-opacity:1;stroke:none;stroke-width:0.8;stroke-linecap:round;stroke-linejoin:round;stroke-opacity:1"
           d="m 663.24041,555.89143 c -5.21448,-0.30134 -7.66614,-0.28961 -12.88451,-0.45998 -0.79979,1.39038 -0.9504,2.40877 -0.29571,4.25281 3.51691,4.85988 2.83258,6.96794 4.63149,11.2212 2.15742,-1.69444 3.53345,-2.93004 4.78505,-5.04566 1.25029,-1.61477 1.84546,-3.39083 3.09575,-5.0056 0.0643,-1.70619 0.66792,-4.96283 0.66792,-4.96283 z"
           id="path68511"
           sodipodi:nodetypes="sccccccs" /></g><g
         inkscape:groupmode="layer"
         id="layer27"
         inkscape:label="线"><g
           inkscape:groupmode="layer"
           id="layer28"
           inkscape:label="边缘"><path
             style="display:inline;opacity:1;fill:none;fill-opacity:1;stroke:#000000;stroke-width:0.8;stroke-linecap:round;stroke-linejoin:round;stroke-opacity:1"
             d="m 575.87222,619.76532 c 5.41869,3.74629 9.90058,4.14544 18.36767,5.33637 10.86419,-0.70239 21.99222,0.68942 33.74612,-0.7976 5.21274,-1.05983 8.29466,-2.07461 13.28722,-4.97259 8.5568,-7.33004 17.30659,-14.81229 22.13624,-25.1925 6.05955,-11.38355 8.20384,-25.2671 3.98451,-37.63656 -13.86265,-2.0944 -27.92907,-0.4219 -41.8556,-1.59683 -16.42027,-0.26797 -32.84305,-0.0464 -49.26227,0.18731 -8.25226,13.14603 -14.30733,28.92104 -11.66085,44.64502 1.43368,7.76348 6.13999,14.24909 11.25696,20.02738 z"
             id="path63581"
             sodipodi:nodetypes="cccccccccc" /><path
             style="opacity:1;fill:#fce9d0;fill-opacity:1;stroke:#000000;stroke-width:0.8;stroke-linecap:round;stroke-linejoin:round;stroke-opacity:1"
             d="m 663.24041,555.89143 c -5.21448,-0.30134 -7.66614,-0.28961 -12.88451,-0.45998 -0.79979,1.39038 -0.9504,2.40877 -0.29571,4.25281 3.51691,4.85988 2.83258,6.96794 4.63149,11.2212 2.15742,-1.69444 3.53345,-2.93004 4.78505,-5.04566 1.25029,-1.61477 1.84546,-3.39083 3.09575,-5.0056 0.0643,-1.70619 0.66792,-4.96283 0.66792,-4.96283 z"
             id="path68509"
             sodipodi:nodetypes="sccccccs" /></g></g></g></g><g
     inkscape:groupmode="layer"
     id="layer6"
     inkscape:label="帽子"
     style="display:inline"><g
       inkscape:groupmode="layer"
       id="layer3"
       inkscape:label="填充"
       style="display:inline;stroke:#000000;stroke-opacity:1"><path
         style="display:inline;fill:#ffffff;fill-opacity:1;stroke:none;stroke-width:0.8;stroke-linecap:butt;stroke-linejoin:miter;stroke-dasharray:none;stroke-dashoffset:0;stroke-opacity:1"
         d="m 912.4951,192.20188 c 31.24912,12.43342 50.42021,50.41491 39.88749,82.71962 -6.15022,16.7394 -19.10693,30.63369 -34.44854,39.46904 -13.9466,7.83068 -31.59768,10.01972 -46.31335,2.95299 -24.97358,-9.94176 -45.18504,-35.34109 -43.69403,-62.91072 2.1912,-19.89047 8.90371,-39.86155 22.17048,-55.15469 9.05117,-3.73181 17.29333,4.40328 25.87179,5.75382 10.00195,1.45932 8.77519,-11.66648 14.00496,-16.53156 7.27202,-4.62592 15.60189,1.19414 22.5212,3.7015 z"
         id="path6488"
         sodipodi:nodetypes="ccccccccc" /><path
         style="display:inline;opacity:1;fill:#c5c5c5;fill-opacity:1;stroke:none;stroke-width:0.8;stroke-linecap:butt;stroke-linejoin:miter;stroke-dasharray:none;stroke-dashoffset:0;stroke-opacity:1"
         d="m 849.62153,199.33498 c -14.7638,19.68844 -24.13556,44.65636 -20.6651,69.42663 5.57322,25.05995 27.16075,45.69112 51.82613,51.79165 21.93025,4.17403 44.40261,-6.86853 58.03717,-23.7266 -9.95631,-1.95024 -32.41293,5.97165 -46.82412,0.14704 -12.63232,-2.90648 -20.26982,-14.88496 -28.55705,-23.90852 -14.86688,-19.70762 -6.63653,-48.36781 -2.73059,-71.08517 2.53424,-4.61226 -6.69093,-5.81258 -11.08644,-2.64504 z"
         id="path8087"
         sodipodi:nodetypes="ccaccsssc" /><path
         style="display:inline;opacity:1;fill:#ffffff;fill-opacity:1;stroke:none;stroke-width:0.8;stroke-linecap:round;stroke-linejoin:round;stroke-dasharray:none;stroke-opacity:1"
         d="m 420.4695,176.30492 c 23.10679,-29.26125 49.238,-58.17362 83.96259,-73.5743 -17.9572,25.74849 -13.30992,62.77235 7.56922,85.44827 35.97352,50.96321 93.92258,84.43712 154.62933,96.22965 38.14976,7.57596 83.37709,7.0579 117.18649,-13.17844 3.26344,3.5908 16.34498,32.88032 20.11309,48.01493 3.91856,17.29498 7.00685,39.32461 -7.96347,52.29933 -33.42914,24.07693 -77.27301,25.54358 -116.82736,21.53808 -72.69094,-7.6731 -146.62259,-31.95976 -199.69392,-84.17014 -26.63696,-28.82274 -55.79754,-60.28655 -61.47424,-100.74383 -1.37043,-10.66821 0.62101,-29.27374 2.49827,-31.86355 z"
         id="path7347"
         sodipodi:nodetypes="ccccccccccc" /><path
         style="display:inline;opacity:1;fill:#c5c5c5;fill-opacity:1;stroke:none;stroke-width:0.8;stroke-linecap:butt;stroke-linejoin:miter;stroke-dasharray:none;stroke-dashoffset:0;stroke-opacity:1"
         d="m 633.18272,276.47711 c 3.23648,0.80221 16.49883,4.58845 24.83835,6.66171 26.70923,4.63084 56.82694,8.04743 84.97178,3.30344 12.80617,-2.75518 26.24732,-5.10385 36.94102,-13.19456 2.9879,-1.53604 3.61765,-3.62009 5.08005,-0.66788 1.4624,2.95219 4.73401,10.2292 6.21323,13.85492 4.4157,10.09018 9.37554,18.08759 12.47219,29.98805 0.98971,6.47317 -9.53733,10.63186 -14.91509,10.91165 -13.76107,2.20096 -27.70355,2.82083 -41.62675,2.52866 -12.52088,-0.42642 -25.21235,1.3007 -37.51913,-1.80866 -9.30925,-2.0841 -17.97012,-6.19069 -26.9208,-9.3893 -11.17285,-4.38744 -21.7293,-10.18579 -32.35098,-15.67948 -7.70741,-3.62228 -9.76035,-12.13319 -14.44733,-18.47605 -1.33845,-2.33213 -4.24355,-6.3417 -2.73654,-8.0325 z"
         id="path19241"
         inkscape:label="path19241"
         sodipodi:nodetypes="ccccsccccccccc" /><path
         style="display:inline;opacity:1;fill:#8bcc8b;fill-opacity:1;stroke:#000000;stroke-width:0.8;stroke-linecap:butt;stroke-linejoin:miter;stroke-dasharray:none;stroke-dashoffset:0;stroke-opacity:1"
         d="m 841.20848,190.03007 c 5.65233,3.39725 22.99083,10.87703 28.86246,13.3064 3.79565,1.57043 7.63379,2.10815 10.62944,0.35674 2.99563,-1.75141 4.27869,-4.31715 7.06592,-12.5157 -1.68616,-11.85165 -5.43157,-23.74641 -9.3552,-35.15141 -2.09433,-6.08768 -4.11568,-12.09595 -6.81518,-17.71283 C 846.45648,88.477008 810.10184,42.798192 760.39797,16.120768 700.44691,8.1460635 639.43619,20.266736 586.4396,47.973584 c -26.52277,14.04256 -58.30416,31.435744 -80.08063,52.370966 -17.72009,22.03267 -17.8132,59.94357 1.50792,81.4993 22.61186,36.46003 60.42236,66.25064 99.59466,83.13377 22.33123,11.6673 46.89562,18.64696 72.37173,21.1737 27.15549,5.35451 57.77451,3.59989 82.64773,-4.86354 21.15505,-6.44396 36.9068,-22.87521 51.90521,-37.80467 7.77168,-14.63587 -7.46051,-28.2907 -13.06144,-41.18809 -6.6999,-10.9945 -15.10294,-22.65666 -22.8184,-32.95949 0.22037,-10.48088 3.26159,-9.87088 14.53423,-3.63307 5.37844,2.9762 16.55835,10.12302 21.51771,12.32144 8.12976,4.02531 18.87467,7.33286 26.65016,12.00617 z"
         id="path30697"
         sodipodi:nodetypes="ssscscccccccccccscs"
         inkscape:label="path30697" /><path
         style="display:inline;opacity:1;fill:#6aa97f;fill-opacity:1;stroke:none;stroke-width:0.8;stroke-linecap:butt;stroke-linejoin:miter;stroke-dasharray:none;stroke-dashoffset:0;stroke-opacity:1"
         d="m 622.92171,220.41193 c 1.64346,-23.87856 3.76013,-50.52002 22.11798,-68.12917 16.9724,-19.65494 40.77037,-33.0915 65.96871,-38.91574 19.99088,-2.46199 39.41259,4.86182 58.51392,9.6143 20.55685,7.40125 40.02872,17.53746 59.75368,26.83363 14.63782,8.81799 29.72209,18.11653 39.43525,32.5608 12.70299,11.49351 4.18174,-13.63915 2.24049,-19.52038 -4.07923,-12.14888 -16.10107,-24.87531 -10.96118,-36.67949 4.6751,-10.73677 14.68753,21.96326 18.59392,30.42608 0.64317,4.80456 4.93691,13.19995 7.13121,21.96459 2.85674,11.41058 2.39808,16.90432 -3.22299,23.94797 -5.78169,7.24493 -27.48989,-5.91419 -38.53553,-11.24187 -15.83245,-7.6365 -34.10821,-14.24634 -48.54733,-24.44152 -2.7536,-1.94427 -5.37267,-3.1644 -7.65935,-3.72955 -2.28668,-0.56517 -5.03075,-2.37314 -6.45481,-1.69751 -1.42407,0.67563 -2.6717,3.8061 -2.83744,5.58421 -0.16575,1.77811 1.54014,4.10166 3.02841,6.84395 12.40312,17.13301 26.36719,37.47893 34.96208,57.07907 2.70612,13.34512 -11.65952,20.60004 -19.00164,29.33439 -24.24752,23.79432 -60.24909,29.72784 -92.904,28.6259 -28.05444,-1.57259 -55.92631,-7.04629 -82.27181,-16.87121 -27.18431,-11.90805 -51.48419,-25.12548 -72.04744,-42.22536 0.41467,-15.52712 20.30456,0.0717 27.04725,4.67424 14.41337,9.2458 28.69132,20.74536 46.34316,22.52884 -0.74972,-12.16182 -2.33484,-24.40491 -0.69254,-36.56617 z"
         id="path14614"
         sodipodi:nodetypes="cccccccscsssssssccccccccc"
         inkscape:label="path14614" /></g><g
       inkscape:groupmode="layer"
       id="layer2"
       inkscape:label="线"
       style="display:inline;fill:none;stroke:#000000;stroke-opacity:1"><g
         inkscape:groupmode="layer"
         id="layer4"
         inkscape:label="其它"
         style="display:inline"><path
           style="display:inline;opacity:1;fill:none;fill-opacity:1;stroke:#000000;stroke-width:0.8;stroke-linecap:butt;stroke-linejoin:miter;stroke-dasharray:none;stroke-dashoffset:0;stroke-opacity:1"
           d="m 649.44069,171.11729 c 13.93737,-12.28912 27.88694,-24.82549 44.8831,-32.72154 13.77296,-8.57432 29.91386,-3.29761 43.67402,2.20019 17.49097,6.43895 34.7762,14.75255 51.4079,23.10173"
           id="path12636"
           sodipodi:nodetypes="cccc" /><path
           style="display:inline;opacity:1;fill:none;fill-opacity:1;stroke:#000000;stroke-width:0.8;stroke-linecap:butt;stroke-linejoin:miter;stroke-dasharray:none;stroke-dashoffset:0;stroke-opacity:1"
           d="m 706.03245,216.59529 c 22.11377,-18.41933 34.72188,-44.72016 45.44516,-70.81331"
           id="path12638" /></g><g
         inkscape:groupmode="layer"
         id="layer5"
         inkscape:label="边缘"
         style="fill:none;stroke:#000000;stroke-width:0.5;stroke-dasharray:none;stroke-opacity:1"><path
           style="display:inline;fill:none;fill-opacity:1;stroke:#000000;stroke-width:0.8;stroke-linecap:butt;stroke-linejoin:miter;stroke-dasharray:none;stroke-dashoffset:0;stroke-opacity:1"
           d="m 912.4951,192.20188 c 31.24912,12.43342 50.42021,50.41491 39.88749,82.71962 -6.15022,16.7394 -19.10693,30.63369 -34.44854,39.46904 -13.9466,7.83068 -31.59768,10.01972 -46.31335,2.95299 -24.97358,-9.94176 -45.18504,-35.34109 -43.69403,-62.91072 2.1912,-19.89047 8.90371,-39.86155 22.17048,-55.15469 9.05117,-3.73181 17.29333,4.40328 25.87179,5.75382 10.00195,1.45932 8.77519,-11.66648 14.00496,-16.53156 7.27202,-4.62592 15.60189,1.19414 22.5212,3.7015 z"
           id="path4427"
           sodipodi:nodetypes="ccccccccc" /><path
           style="display:inline;opacity:1;fill:#000000;fill-opacity:0;stroke:#000000;stroke-width:0.8;stroke-linecap:butt;stroke-linejoin:miter;stroke-dasharray:none;stroke-dashoffset:0;stroke-opacity:1"
           d="m 841.20848,190.03007 c 5.65233,3.39725 22.99083,10.87703 28.86246,13.3064 3.79565,1.57043 7.63379,2.10815 10.62944,0.35674 2.99563,-1.75141 4.27869,-4.31715 7.06592,-12.5157 -1.68616,-11.85165 -5.43157,-23.74641 -9.3552,-35.15141 -2.09433,-6.08768 -4.11568,-12.09595 -6.81518,-17.71283 C 846.45648,88.477008 810.10184,42.798192 760.39797,16.120768 700.44691,8.1460635 639.43619,20.266736 586.4396,47.973584 c -26.52277,14.04256 -58.30416,31.435744 -80.08063,52.370966 -17.72009,22.03267 -17.8132,59.94357 1.50792,81.4993 22.61186,36.46003 60.42236,66.25064 99.59466,83.13377 22.33123,11.6673 46.89562,18.64696 72.37173,21.1737 27.15549,5.35451 57.77451,3.59989 82.64773,-4.86354 21.15505,-6.44396 36.9068,-22.87521 51.90521,-37.80467 7.77168,-14.63587 -7.46051,-28.2907 -13.06144,-41.18809 -6.6999,-10.9945 -15.10294,-22.65666 -22.8184,-32.95949 0.22037,-10.48088 3.26159,-9.87088 14.53423,-3.63307 5.37844,2.9762 16.55835,10.12302 21.51771,12.32144 8.12976,4.02531 18.87467,7.33286 26.65016,12.00617 z"
           id="path11902"
           sodipodi:nodetypes="ssscscccccccccccscs"
           inkscape:label="path11902" /><path
           style="opacity:1;fill:none;fill-opacity:1;stroke:#000000;stroke-width:0.8;stroke-linecap:round;stroke-linejoin:round;stroke-opacity:1"
           d="m 420.4695,176.30492 c 23.10679,-29.26125 49.238,-58.17362 83.96259,-73.5743 -17.9572,25.74849 -13.30992,62.77235 7.56922,85.44827 35.97352,50.96321 93.92258,84.43712 154.62933,96.22965 38.14976,7.57596 83.37709,7.0579 117.18649,-13.17844 3.26344,3.5908 16.34498,32.88032 20.11309,48.01493 3.91856,17.29498 7.00685,39.32461 -7.96347,52.29933 -33.42914,24.07693 -77.27301,25.54358 -116.82736,21.53808 -72.69094,-7.6731 -146.62259,-31.95976 -199.69392,-84.17014 -26.63696,-28.82274 -55.79754,-60.28655 -61.47424,-100.74383 -1.37043,-10.66821 0.62101,-29.27374 2.49827,-31.86355 z"
           id="path7289"
           sodipodi:nodetypes="ccccccccccc" /></g></g></g></svg>
